<svg width="1207" height="898" viewBox="0 0 1207 898" fill="none" xmlns="http://www.w3.org/2000/svg">
<path fill-rule="evenodd" clip-rule="evenodd" d="M1080.75 584.41C1135.77 473.281 1140.75 361.307 1095.43 269.711C1050.11 178.115 958.07 114.144 836.344 90.4747C714.534 66.7896 567.554 85.0156 426.187 154.965C284.82 224.914 181.167 330.702 126.101 441.907C71.0726 553.035 66.0949 665.009 111.417 756.605C156.74 848.202 248.776 912.173 370.503 935.842C492.313 959.527 639.292 941.301 780.659 871.351C922.026 801.402 1025.68 695.614 1080.75 584.41ZM816.138 943.054C1127.47 789.007 1284.61 471.657 1167.13 234.232C1049.65 -3.19278 702.036 -70.7843 390.708 83.2623C79.3809 237.309 -77.7644 554.659 39.7147 792.084C157.194 1029.51 504.81 1097.1 816.138 943.054Z" fill="url(#paint0_linear_471_8797)" fill-opacity="0.4"/>
<defs>
<linearGradient id="paint0_linear_471_8797" x1="30.1759" y1="964.283" x2="1552.24" y2="118.186" gradientUnits="userSpaceOnUse">
<stop stop-color="#D31044"/>
<stop offset="1" stop-color="#D31044"/>
</linearGradient>
</defs>
</svg>
