<svg width="150" height="78" viewBox="0 0 150 78" fill="none" xmlns="http://www.w3.org/2000/svg">
<path d="M34.1546 3.56447C34.9772 2.34568 35.9465 1.49446 37.0561 1.01727C38.1576 0.540071 39.2092 0.304697 40.1849 0.304697C40.3317 0.304697 40.9849 0.364345 42.1687 0.482032V7.26436C41.5816 7.02898 40.9285 6.9113 40.1849 6.9113C39.0318 6.9113 38.0189 7.15312 37.1512 7.63838C36.2851 8.12364 35.6239 8.82008 35.1529 9.7374C34.6901 10.6483 34.4546 11.7349 34.4546 12.9891V22.0623H26.7437V0.788342H34.1546V3.56285V3.56447ZM17.8055 55.982H25.3131V66.6931C25.3131 69.2161 25.6276 71.291 28.6162 71.291H28.6936H28.771C31.7596 71.291 32.0741 69.2161 32.0741 66.6931V55.982H39.5817V67.13C39.5817 69.724 39.0931 72.2373 38.0689 73.7721C36.2368 76.5176 31.8757 77.4639 28.7727 77.4639H28.6952H28.6178C25.5131 77.4639 21.1537 76.5176 19.3215 73.7721C18.2974 72.2373 17.8087 69.724 17.8087 67.13V55.982H17.8055ZM7.41411 58.7952C8.23665 57.5764 9.20595 56.7252 10.3156 56.248C12.3655 55.3613 13.3557 55.5064 15.4266 55.7128V62.4951C14.8395 62.2597 14.1847 62.142 13.4428 62.142C12.2897 62.142 11.2752 62.3838 10.4091 62.8691C9.54304 63.3527 8.88179 64.0508 8.41084 64.9697C7.94796 65.8806 7.71248 66.9672 7.71248 68.2214V77.2962H0.00161439V56.0207H7.4125V58.7952H7.41411ZM49.7102 47.0716C51.2892 47.0716 52.4714 46.5138 53.2649 45.4047C54.0648 44.2971 54.4616 42.8784 54.4616 41.1679C54.4616 39.48 54.0648 38.0774 53.2713 36.9683C52.4778 35.8591 51.2956 35.3094 49.7086 35.3094C48.1152 35.3094 46.9249 35.8591 46.133 36.9683C45.3395 38.0774 44.9428 39.4784 44.9428 41.1679C44.9428 42.8784 45.3395 44.2955 46.1395 45.4047C46.933 46.5122 48.1232 47.0716 49.7086 47.0716H49.7102ZM49.7102 52.6223C47.0668 52.6223 44.7815 52.1451 42.8574 51.1842C40.9333 50.2298 39.4721 48.8853 38.4657 47.1538C37.4673 45.4208 36.9674 43.4314 36.9674 41.1711C36.9674 37.7437 38.098 34.9902 40.3607 32.8976C42.6155 30.805 45.7362 29.7619 49.7102 29.7619C52.3327 29.7619 54.6084 30.2391 56.5325 31.1935C58.4501 32.1479 59.9194 33.4925 60.9241 35.2175C61.9305 36.9505 62.437 38.9319 62.437 41.1711C62.437 43.433 61.937 45.4224 60.9387 47.1538C59.9323 48.8869 58.4711 50.2298 56.547 51.1842C54.6229 52.1467 52.3391 52.6223 49.7102 52.6223ZM65.4723 51.8291V36.1041H62.6966V30.5535H65.4723V24.6949H73.1832V30.5535H76.9572V36.1041H73.1832V51.8291H65.4723ZM79.6296 30.5551H87.3405V51.8291H79.6296V30.5551ZM102.515 47.0732C104.094 47.0732 105.277 46.5154 106.07 45.4063C106.872 44.2987 107.267 42.88 107.267 41.1695C107.267 39.4816 106.87 38.079 106.077 36.9699C105.285 35.8623 104.101 35.311 102.514 35.311C100.92 35.311 99.7301 35.8607 98.9382 36.9699C98.1447 38.079 97.748 39.48 97.748 41.1695C97.748 42.88 98.1447 44.2971 98.9447 45.4063C99.7382 46.5138 100.928 47.0732 102.514 47.0732H102.515ZM102.515 52.6239C99.8721 52.6239 97.5883 52.1467 95.6626 51.1858C93.7385 50.2314 92.2773 48.8869 91.2709 47.1554C90.2726 45.4224 89.7726 43.433 89.7726 41.1728C89.7726 37.7453 90.9048 34.9918 93.166 32.8992C95.4207 30.8066 98.5415 29.7636 102.514 29.7636C105.136 29.7636 107.412 30.2407 109.338 31.1951C111.254 32.1495 112.723 33.4941 113.729 35.2191C114.736 36.9521 115.242 38.9335 115.242 41.1728C115.242 43.4346 114.742 45.424 113.744 47.1554C112.737 48.8885 111.276 50.2314 109.352 51.1858C107.428 52.1483 105.144 52.6239 102.514 52.6239H102.515ZM125.372 33.0233C127.04 30.8501 129.338 29.7636 132.291 29.7636C135.412 29.7636 137.462 30.7631 138.423 32.7525C139.386 34.7499 139.87 36.9666 139.87 39.4107V51.8323H132.159V40.1087C132.159 37.4438 131.248 36.1074 129.427 36.1074C128.259 36.1074 127.29 36.5765 126.525 37.5083C125.755 38.4482 125.372 39.725 125.372 41.3469V51.8307H117.661V30.5567H125.372V33.0233ZM141.979 48.6161C141.979 47.9325 142.155 47.2876 142.5 46.6702C142.846 46.0543 143.331 45.5546 143.941 45.1806C144.557 44.7985 145.241 44.6083 145.989 44.6083C147.179 44.6083 148.148 45.0113 148.89 45.827C149.632 46.6412 150 47.5665 150 48.6161C150 49.643 149.632 50.5764 148.89 51.3906C148.157 52.2128 147.187 52.6239 145.989 52.6239C144.844 52.6239 143.889 52.2208 143.125 51.4051C142.36 50.5893 141.979 49.6575 141.979 48.6161ZM7.71409 29.9232V30.5567V32.8025C9.54303 30.776 11.7752 29.7636 14.4121 29.7636C17.4604 29.7636 19.5893 30.8501 20.8021 33.0233C21.7279 31.8561 22.7181 31.0194 23.7761 30.5197C24.8261 30.0134 26.0825 29.7636 27.5372 29.7636C29.4016 29.7636 30.879 30.1747 31.9725 30.9968C33.066 31.819 33.8159 32.8025 34.2336 33.9632C34.653 35.1223 34.8578 36.275 34.8578 37.4277V51.8307H27.1469V39.4091C27.1469 37.2069 26.3389 36.1058 24.7164 36.1058C23.8197 36.1058 23.0278 36.4508 22.3294 37.1472C21.6327 37.8437 21.2859 38.9319 21.2859 40.4215V51.8307H13.5751V39.4091C13.5751 37.2069 12.767 36.1058 11.1591 36.1058C10.2559 36.1058 9.45593 36.4508 8.75758 37.1408C8.05923 37.8372 7.71409 38.9254 7.71409 40.4215V51.8307H0.00322878V32.8621V32.4446L7.71409 29.9232ZM56.0276 17.4032C57.6066 17.4032 58.7888 16.8454 59.5823 15.7362C60.3822 14.6271 60.7806 13.2116 60.7806 11.4995C60.7806 9.81156 60.3839 8.40899 59.5903 7.29982C58.7968 6.19066 57.6147 5.64092 56.0276 5.64092C54.4342 5.64092 53.2439 6.19066 52.4504 7.29982C51.6569 8.40737 51.2601 9.80994 51.2601 11.4995C51.2601 13.21 51.6569 14.6271 52.4569 15.7362C53.2504 16.8438 54.4406 17.4032 56.026 17.4032H56.0276ZM55.6777 22.8603C53.0342 22.8603 51.0989 22.4766 49.1748 21.5142C47.2507 20.5598 45.7895 19.2169 44.7831 17.4838C43.7847 15.7507 43.2848 13.7613 43.2848 11.5011C43.2848 8.07366 44.4153 5.3201 46.6781 3.22753C48.9328 1.13496 52.0537 0.0935051 56.0276 0.0935051C58.6501 0.0935051 60.9258 0.5707 62.8498 1.52509C64.7659 2.47949 66.2351 3.82402 67.2415 5.54903C68.2479 7.28209 68.7544 9.26343 68.7544 11.5027C68.7544 13.7646 68.2544 15.7539 67.2561 17.4854C66.2497 19.2185 64.7885 20.5614 62.8644 21.5158C60.9403 22.4782 58.3065 22.8619 55.6777 22.8619V22.8603ZM7.4125 0.793179V3.38391C8.41083 2.14416 9.45433 1.27037 10.5414 0.764159C11.6365 0.257943 12.9283 0 14.4186 0C15.9975 0 17.4071 0.301472 18.6635 0.896356C19.9118 1.49769 20.9553 2.31344 21.7843 3.34844C22.6068 4.38344 23.2391 5.60223 23.6713 6.98868C24.1052 8.37674 24.3245 9.85186 24.3245 11.4076C24.3245 13.3535 23.9503 15.2026 23.2084 16.9582C22.4585 18.7122 21.3359 20.1374 19.8296 21.224C18.3313 22.3186 16.5249 22.8619 14.417 22.8619C11.7284 22.8619 9.49625 21.8785 7.71087 19.9036V25.846L0 28.3674V28.3336V0.79479H7.41088L7.4125 0.793179ZM12.7896 16.5181C14.2428 16.5181 15.3814 16.0329 16.1975 15.064C17.0136 14.095 17.4168 12.8763 17.4168 11.4076C17.4168 9.95504 17.0136 8.7427 16.1975 7.78186C15.3814 6.8194 14.2444 6.34382 12.7896 6.34382C11.2107 6.34382 10.043 6.85809 9.29305 7.8931C8.54309 8.9281 8.16892 10.0953 8.16892 11.4092C8.16892 12.7457 8.54309 13.9274 9.29305 14.9624C10.0495 15.9974 11.2091 16.5181 12.7896 16.5181Z" fill="white"/>
</svg>
