<svg width="74" height="59" viewBox="0 0 74 59" fill="none" xmlns="http://www.w3.org/2000/svg">
<path id="&#226;&#128;&#156;" d="M24.1492 27.5912C27.0241 28.8637 29.2665 30.7725 30.8765 33.3176C32.4864 35.8627 33.2914 38.8706 33.2914 42.3412C33.2914 47.3157 31.7389 51.3647 28.634 54.4882C25.5291 57.4961 21.5618 59 16.7319 59C11.9021 59 7.87723 57.4382 4.65734 54.3147C1.55245 51.1912 0 47.2 0 42.3412C0 40.0275 0.28749 37.7137 0.862471 35.4C1.43745 33.0863 2.70241 29.6157 4.65734 24.9882L14.662 0H31.7389L24.1492 27.5912ZM64.8578 27.5912C67.7327 28.8637 69.9751 30.7725 71.5851 33.3176C73.195 35.8627 74 38.8706 74 42.3412C74 47.3157 72.4475 51.3647 69.3427 54.4882C66.2378 57.4961 62.2704 59 57.4406 59C52.6107 59 48.5859 57.4382 45.366 54.3147C42.2611 51.1912 40.7086 47.2 40.7086 42.3412C40.7086 40.0275 40.9961 37.7137 41.5711 35.4C42.1461 33.0863 43.411 29.6157 45.366 24.9882L55.3706 0H72.4476L64.8578 27.5912Z" fill="#DEE3E9"/>
</svg>
