<svg width="12" height="12" viewBox="0 0 12 12" fill="none" xmlns="http://www.w3.org/2000/svg">
<g clip-path="url(#clip0_1902_41)">
<path d="M0 12L0.220024 9.87598L5.05456 4.95598C4.80789 4.29682 4.75389 3.58109 4.89887 2.89239C5.04386 2.20368 5.38183 1.57045 5.87332 1.06665C6.20368 0.728107 6.59844 0.459074 7.03436 0.275387C7.47028 0.0916994 7.93855 -0.00292969 8.4116 -0.00292969C8.88465 -0.00292969 9.35292 0.0916994 9.78884 0.275387C10.2248 0.459074 10.6195 0.728107 10.9499 1.06665C11.6229 1.75806 11.9995 2.68481 11.9995 3.64965C11.9995 4.61449 11.6229 5.54124 10.9499 6.23265C10.4652 6.72966 9.84534 7.07359 9.1671 7.22184C8.48885 7.37008 7.78201 7.31612 7.13413 7.06665L5.52728 8.70198L4.26047 8.81931L4.14513 10.1113L2.87832 10.228L2.76297 11.52L0 12ZM9.001 1.99998C8.76963 2.00009 8.54544 2.0804 8.36665 2.22725C8.18786 2.37409 8.06552 2.57838 8.02048 2.8053C7.97543 3.03222 8.01047 3.26774 8.11963 3.47173C8.22878 3.67572 8.40529 3.83556 8.61909 3.92401C8.83288 4.01246 9.07074 4.02405 9.29212 3.95681C9.51351 3.88957 9.70473 3.74766 9.83321 3.55526C9.96169 3.36285 10.0195 3.13186 9.99672 2.90163C9.97396 2.6714 9.87207 2.45618 9.70841 2.29265C9.61567 2.19957 9.50541 2.12578 9.38399 2.07554C9.26257 2.02531 9.1324 1.99963 9.001 1.99998Z" fill="#ED0644"/>
</g>
<defs>
<clipPath id="clip0_1902_41">
<rect width="12" height="12" fill="white"/>
</clipPath>
</defs>
</svg>
