<svg width="12" height="12" viewBox="0 0 12 12" xmlns="http://www.w3.org/2000/svg">
<g clip-path="url(#clip0_1901_96)">
<path d="M0 12L0.220024 9.87601L5.05456 4.95601C4.80789 4.29685 4.75389 3.58112 4.89887 2.89242C5.04386 2.20371 5.38183 1.57048 5.87332 1.06668C6.20368 0.728137 6.59844 0.459104 7.03436 0.275417C7.47028 0.0917299 7.93855 -0.00289917 8.4116 -0.00289917C8.88465 -0.00289917 9.35292 0.0917299 9.78884 0.275417C10.2248 0.459104 10.6195 0.728137 10.9499 1.06668C11.6229 1.75809 11.9995 2.68484 11.9995 3.64968C11.9995 4.61452 11.6229 5.54127 10.9499 6.23268C10.4652 6.72969 9.84534 7.07362 9.1671 7.22187C8.48885 7.37011 7.78201 7.31615 7.13413 7.06668L5.52728 8.70201L4.26047 8.81934L4.14513 10.1113L2.87832 10.228L2.76297 11.52L0 12ZM9.001 2.00001C8.76963 2.00012 8.54544 2.08043 8.36665 2.22728C8.18786 2.37412 8.06552 2.57841 8.02048 2.80533C7.97543 3.03226 8.01047 3.26778 8.11963 3.47176C8.22878 3.67575 8.40529 3.83559 8.61909 3.92404C8.83288 4.01249 9.07074 4.02408 9.29212 3.95684C9.51351 3.8896 9.70473 3.74769 9.83321 3.55529C9.96169 3.36288 10.0195 3.13189 9.99672 2.90166C9.97396 2.67143 9.87207 2.45621 9.70841 2.29268C9.61567 2.1996 9.50541 2.12581 9.38399 2.07557C9.26257 2.02534 9.1324 1.99966 9.001 2.00001Z" />
</g>
<defs>
<clipPath id="clip0_1901_96">
<rect width="12" height="12"/>
</clipPath>
</defs>
</svg>
