<svg width="51" height="38" viewBox="0 0 51 38" fill="none" xmlns="http://www.w3.org/2000/svg">
<path d="M26.671 21.089C25.4262 31.9382 22.8346 33.9975 11.9848 32.7532C1.13605 31.5083 -0.922185 28.9162 0.321134 18.067C1.56597 7.21769 4.15807 5.15945 15.0074 6.40429C25.8567 7.64813 27.9159 10.2402 26.671 21.0895V21.089Z" fill="url(#paint0_linear_358_1742)"/>
<path d="M17.951 13.0493C16.857 13.0493 15.9815 13.4869 15.1066 14.7756L11.7031 19.9053L12.0189 15.918C12.1164 14.4107 11.1682 13.0493 9.49044 13.0493C7.93431 13.0493 6.96193 14.0948 6.86456 15.4321L6.32968 22.7744C6.20807 24.598 7.15621 25.643 8.66343 25.643C10.1706 25.643 11.1188 24.549 11.8242 23.552L15.1061 18.5681L14.8144 22.7739C14.6686 24.4759 15.5925 25.6425 17.2698 25.6425C18.826 25.6425 19.8467 24.7186 19.9441 23.333L20.479 15.918C20.6006 14.4592 19.8957 13.0493 17.9505 13.0493H17.951Z" fill="url(#paint1_linear_358_1742)"/>
<path d="M12.0138 15.9216L11.698 19.9089L11.8191 23.5556C11.1137 24.5527 10.1655 25.6467 8.65831 25.6467C7.1511 25.6467 6.20295 24.6016 6.32455 22.7781L6.85945 15.4357C6.95682 14.0985 7.92919 13.053 9.48533 13.053C11.1631 13.053 12.1113 14.4144 12.0138 15.9216Z" fill="url(#paint2_linear_358_1742)"/>
<path d="M12.0242 15.7103C12.0242 14.3197 11.125 13.0486 9.47142 13.0486C7.81785 13.0486 6.85864 14.2884 6.85864 15.6255C6.85864 17.0601 7.93491 18.1783 9.44212 18.1783C10.9493 18.1783 12.0242 17.1443 12.0242 15.7103Z" fill="white"/>
<defs>
<linearGradient id="paint0_linear_358_1742" x1="29.6025" y1="49.2963" x2="0.0138328" y2="5.03706" gradientUnits="userSpaceOnUse">
<stop offset="0.798" stop-color="#F30745"/>
<stop offset="0.977" stop-color="#FFBCCE"/>
</linearGradient>
<linearGradient id="paint1_linear_358_1742" x1="12.8463" y1="19.2841" x2="7.58743" y2="18.6165" gradientUnits="userSpaceOnUse">
<stop offset="0.15" stop-color="white"/>
<stop offset="0.62" stop-color="white" stop-opacity="0.6"/>
<stop offset="1" stop-color="white" stop-opacity="0"/>
</linearGradient>
<linearGradient id="paint2_linear_358_1742" x1="7.99628" y1="25.551" x2="9.42292" y2="17.77" gradientUnits="userSpaceOnUse">
<stop offset="0.15" stop-color="white"/>
<stop offset="0.62" stop-color="white" stop-opacity="0.6"/>
<stop offset="1" stop-color="white" stop-opacity="0"/>
</linearGradient>
</defs>
</svg>
