<svg width="62" height="17" viewBox="0 0 62 17" fill="none" xmlns="http://www.w3.org/2000/svg">
<path d="M1.87879 3.32167C3.01254 1.39093 4.37304 0.249268 5.52299 0.249268C6.67293 0.249268 8.03343 1.39093 9.15099 3.32167C10.3171 5.31957 11.0136 7.78757 11.0136 9.93657C11.0136 13.0761 9.31295 16.2493 5.50679 16.2493C1.70063 16.2493 0 13.0761 0 9.93657C0 7.78757 0.712644 5.31957 1.87879 3.32167Z" fill="#E30613"/>
<path d="M26.8699 1.10553L24.6672 9.63439L22.4645 1.10553H15.1761V15.393H19.3062V3.77499L22.3025 15.393H27.0481L30.0444 3.7582V15.393H34.1745V1.10553H26.8699Z" fill="#E30613"/>
<path d="M39.1306 4.96702H35.2758V1.10553H47.1316V4.96702H43.2607V15.393H39.1306V4.96702Z" fill="#E30613"/>
<path d="M62 4.96702H55.9425C53.3673 4.96702 51.6667 5.924 51.6667 8.2241C51.6667 10.5578 53.3673 11.5148 55.9425 11.5148H62V15.3763H55.9425C50.3872 15.3763 47.407 12.5053 47.407 8.24089C47.407 3.97646 50.371 1.10553 55.9425 1.10553H62V4.96702Z" fill="#E30613"/>
</svg>
