<svg width="123" height="26" viewBox="0 0 123 26" fill="none" xmlns="http://www.w3.org/2000/svg">
<path d="M118.781 5.59414L114.584 10.2614V5.59414H111.547V17.3763H114.584V12.4175L119.077 17.3763H123L117.475 11.2029L122.6 5.59414H118.781Z" fill="#EF3124"/>
<path d="M106.193 9.98836H101.996V5.59414H98.9571V17.3763H101.996V12.7308H106.193V17.3763H109.23V5.59414H106.193V9.98836Z" fill="#EF3124"/>
<path d="M18.033 11.9769C17.9604 14.1749 17.6751 14.6138 16.431 14.6138V17.3763H16.8952C19.9997 17.3763 20.7459 15.7848 20.8607 12.2483L20.9873 8.33487H23.8977V17.3763H26.9347V5.59414H18.2457L18.0347 11.9769H18.033Z" fill="#EF3124"/>
<path d="M34.4825 9.17251H32.2896V5.59414H29.2526V17.3763H34.5247C37.8352 17.3763 39.017 15.242 39.017 13.2317C39.017 10.6367 37.3727 9.17083 34.4825 9.17083M34.2513 14.7796H32.2896V11.7859H34.2513C35.3064 11.7859 35.9377 12.2466 35.9377 13.23C35.9377 14.2971 35.3266 14.7796 34.2513 14.7796Z" fill="#EF3124"/>
<path d="M48.9079 5.32107V0.946949H45.8709V5.32107C42.3916 5.61424 40.0501 8.06348 40.0501 11.4743C40.0501 14.8852 42.3916 17.3562 45.8709 17.6477V22.0855H48.9079V17.6477C52.3873 17.3763 54.7288 14.9053 54.7288 11.4743C54.7288 8.04338 52.3873 5.59246 48.9079 5.32107ZM45.8709 14.8031C44.1844 14.5719 43.1293 13.3171 43.1293 11.476C43.1293 9.63488 44.1844 8.37843 45.8709 8.14892V14.8048V14.8031ZM48.9079 14.8031V8.14724C50.5944 8.37676 51.6495 9.63321 51.6495 11.4743C51.6495 13.3154 50.5944 14.5719 48.9079 14.8014" fill="#EF3124"/>
<path d="M66.1188 13.756V9.80073C66.1188 6.91257 64.2635 5.09156 61.1421 5.09156C58.0207 5.09156 56.2076 7.01811 56.059 9.02676H59.1383C59.2429 8.58784 59.7072 7.83397 61.1421 7.83397C62.3238 7.83397 63.0818 8.37843 63.0818 9.80073H60.0651C57.3657 9.80073 55.7619 11.2029 55.7619 13.5466C55.7619 15.8903 57.5159 17.6695 60.0431 17.6695C61.8967 17.6695 62.9265 16.8 63.3756 16.1416C63.7757 16.9374 64.6619 17.3763 65.8217 17.3763H66.8768V14.6557C66.3282 14.6557 66.1171 14.4044 66.1171 13.756M63.0801 12.9821C63.0801 14.3424 62.1094 15.1164 60.845 15.1164C59.7477 15.1164 58.8833 14.7193 58.8833 13.5466C58.8833 12.3739 59.8321 12.2081 60.6542 12.2081H63.0801V12.9821Z" fill="#EF3124"/>
<path d="M79.1329 7.26773H75.738V3.94065H83.6049V0.946949H72.5524V17.3763H79.1329C82.7811 17.3763 84.8693 15.5771 84.8693 12.2701C84.8693 9.1524 82.7811 7.26773 79.1329 7.26773ZM78.9844 14.4044H75.7363V10.1341H78.9844C80.6708 10.1341 81.6213 10.9081 81.6213 12.2684C81.6213 13.6287 80.6725 14.4027 78.9844 14.4027" fill="#EF3124"/>
<path d="M96.4907 13.756V9.80073C96.4907 6.91257 94.6354 5.09156 91.514 5.09156C88.3925 5.09156 86.5794 7.01811 86.4309 9.02676H89.5101C89.6148 8.58784 90.079 7.83397 91.514 7.83397C92.6957 7.83397 93.4537 8.37843 93.4537 9.80073H90.4369C87.7375 9.80073 86.1338 11.2029 86.1338 13.5466C86.1338 15.8903 87.8878 17.6695 90.415 17.6695C92.2686 17.6695 93.2984 16.8 93.7474 16.1416C94.1475 16.9374 95.0338 17.3763 96.1936 17.3763H97.2487V14.6557C96.7 14.6557 96.489 14.4044 96.489 13.756M93.452 12.9821C93.452 14.3424 92.4813 15.1164 91.2168 15.1164C90.1195 15.1164 89.2552 14.7193 89.2552 13.5466C89.2552 12.3739 90.2039 12.2081 91.0261 12.2081H93.452V12.9821Z" fill="#EF3124"/>
<path d="M16.2402 22.4004H0V25.7493H16.2402V22.4004Z" fill="#EF3124"/>
<path d="M11.0727 3.20186C10.6085 1.83149 10.075 0.749268 8.24671 0.749268C6.41842 0.749268 5.84951 1.82646 5.36331 3.20186L0.337634 17.3763H3.67008L4.82985 14.0073H11.2415L12.3169 17.3763H15.8603L11.0727 3.20186ZM5.80055 11.161L8.07789 4.44323H8.1623L10.313 11.161H5.79886H5.80055Z" fill="#EF3124"/>
</svg>
