<svg width="140" height="14" viewBox="0 0 140 14" fill="none" xmlns="http://www.w3.org/2000/svg">
<path d="M9.61907 13.2282V4.56982H15.1853V1.41912H0V4.56982H5.56602V13.2282H9.61907ZM20.7252 8.2912V1.41912H16.8074V13.2282H20.2659L27.0209 6.35608V13.2282H30.9389V1.41912H27.4802L20.7252 8.2912ZM44.1197 8.83704V13.2282H48.0381V1.41912H44.1197V5.73582H37.8239V1.41912H33.9061V13.2282H37.8239V8.83704H44.1197ZM58.9485 13.2282C59.8399 13.2282 60.6505 13.1538 61.4073 12.9553C63.435 12.4344 64.7575 10.9209 64.7575 8.86178C64.7575 6.90192 63.6235 5.53749 61.8137 4.91711C60.9469 4.61951 59.9219 4.59466 58.9485 4.59466H54.9224V1.41912H51.0052V13.2282H58.9485ZM58.2726 7.37333C58.8138 7.37333 59.3268 7.37333 59.786 7.52219C60.435 7.72062 60.8134 8.21678 60.8134 8.8122C60.8134 9.43246 60.435 9.95346 59.813 10.2015C59.3807 10.3752 58.9485 10.3752 58.2726 10.3752H54.9224V7.37333H58.2726ZM71.7823 8.76261L76.4574 13.2282H81.6713L75.1607 7.07551L81.4288 1.41912H76.5113L71.7823 5.85993H70.7023V1.41912H66.7851V13.2282H70.7023V8.76261H71.7823ZM89.7329 1.09667C84.4639 1.09667 81.3035 3.82554 81.3035 7.34838C81.3035 10.8714 84.4639 13.6004 89.7329 13.6004C94.9761 13.6004 98.1377 10.8714 98.1377 7.34838C98.1377 3.82554 94.9761 1.09667 89.7329 1.09667ZM89.7329 10.7226C87.1125 10.7226 85.4385 9.28361 85.4385 7.34838C85.4385 5.41347 87.1125 3.99924 89.7329 3.99924C92.3275 3.99924 94.0296 5.41347 94.0296 7.34838C94.0296 9.28361 92.3275 10.7226 89.7329 10.7226ZM111.186 0.749268H107.268V1.94C102.35 2.03928 99.404 3.94955 99.404 7.32364C99.404 10.6976 102.35 12.4592 107.268 12.5584V13.7493H111.186V12.5584C116.129 12.4592 119.075 10.6976 119.075 7.32364C119.075 3.94955 116.129 2.03928 111.186 1.94V0.749268ZM107.268 10.0279C104.565 9.92861 103.376 8.91147 103.376 7.32364C103.376 5.73582 104.565 4.59466 107.268 4.4955V10.0279ZM111.186 4.4955C113.915 4.59466 115.076 5.73582 115.076 7.32364C115.076 8.91147 113.915 9.92861 111.186 10.0279V4.4955ZM132.109 0.749268H128.191V1.94C123.274 2.03928 120.33 3.94955 120.33 7.32364C120.33 10.6976 123.274 12.4592 128.191 12.5584V13.7493H132.109V12.5584C137.055 12.4592 140 10.6976 140 7.32364C140 3.94955 137.055 2.03928 132.109 1.94V0.749268ZM128.191 10.0279C125.49 9.92861 124.301 8.91147 124.301 7.32364C124.301 5.73582 125.49 4.59466 128.191 4.4955V10.0279ZM132.109 4.4955C134.839 4.59466 136.001 5.73582 136.001 7.32364C136.001 8.91147 134.839 9.92861 132.109 10.0279V4.4955Z" fill="#212121"/>
</svg>
