<svg width="79" height="38" viewBox="0 0 79 38" fill="none" xmlns="http://www.w3.org/2000/svg">
<path d="M26.671 21.089C25.4262 31.9382 22.8346 33.9975 11.9848 32.7532C1.13605 31.5083 -0.922185 28.9162 0.321134 18.067C1.56597 7.21769 4.15807 5.15945 15.0074 6.40429C25.8567 7.64813 27.9159 10.2402 26.671 21.0895V21.089Z" fill="url(#paint0_linear_435_8627)"/>
<path d="M17.951 13.0493C16.857 13.0493 15.9815 13.4869 15.1066 14.7756L11.7031 19.9053L12.0189 15.918C12.1164 14.4107 11.1682 13.0493 9.49044 13.0493C7.93431 13.0493 6.96193 14.0948 6.86456 15.4321L6.32968 22.7744C6.20807 24.598 7.15621 25.643 8.66343 25.643C10.1706 25.643 11.1188 24.549 11.8242 23.552L15.1061 18.5681L14.8144 22.7739C14.6686 24.4759 15.5925 25.6425 17.2698 25.6425C18.826 25.6425 19.8467 24.7186 19.9441 23.333L20.479 15.918C20.6006 14.4592 19.8957 13.0493 17.9505 13.0493H17.951Z" fill="url(#paint1_linear_435_8627)"/>
<path d="M12.0138 15.9216L11.698 19.9089L11.8191 23.5556C11.1137 24.5527 10.1655 25.6467 8.65831 25.6467C7.1511 25.6467 6.20295 24.6016 6.32455 22.7781L6.85945 15.4357C6.95682 14.0985 7.92919 13.053 9.48533 13.053C11.1631 13.053 12.1113 14.4144 12.0138 15.9216Z" fill="url(#paint2_linear_435_8627)"/>
<path d="M12.0242 15.7103C12.0242 14.3197 11.125 13.0486 9.47142 13.0486C7.81785 13.0486 6.85864 14.2884 6.85864 15.6255C6.85864 17.0601 7.93491 18.1783 9.44212 18.1783C10.9493 18.1783 12.0242 17.1443 12.0242 15.7103Z" fill="white"/>
<path d="M75.9868 13.0295C74.9038 13.0295 74.0032 13.4625 73.1484 14.7623L69.7404 19.9031L70.0481 15.8911C70.1622 14.3864 69.2161 13.0301 67.5292 13.0301C65.9564 13.0301 64.9876 14.0902 64.8963 15.4239L64.3604 22.7531C64.2352 24.5994 65.1808 25.6252 66.7315 25.6252C68.2821 25.6252 69.1706 24.5651 69.8544 23.5392L73.1484 18.5584L72.8522 22.7531C72.727 24.4743 73.6272 25.6252 75.3141 25.6252C76.8759 25.6252 77.879 24.7018 77.9814 23.3112L78.5284 15.8906C78.6308 14.4545 77.9244 13.0295 75.9868 13.0295ZM63.0156 22.0911C63.0156 20.4153 61.739 19.3324 60.0522 19.1159C61.6249 18.7855 63.0045 17.748 63.0045 16.0612C63.0045 14.1917 61.5568 13.132 58.9012 13.1431H53.5212C51.0366 13.1431 50.1131 14.1462 49.9194 16.8817L49.5999 21.4639C49.3835 24.5414 50.261 25.5102 53.2931 25.5102H58.445C61.4085 25.5102 63.0156 24.2911 63.0156 22.0911ZM57.9318 21.7605C57.9318 22.8207 57.1113 23.3222 55.7434 23.3222L54.2932 23.3107C54.2932 23.3107 54.5207 21.8181 54.6671 20.3245H55.9942C57.134 20.3245 57.9318 20.7917 57.9318 21.7605ZM57.9888 16.7454C57.9888 17.6572 57.2481 18.2041 55.9372 18.2041H54.8462C54.8462 18.2041 54.9552 16.5415 54.8841 15.3431H56.085C57.2819 15.3431 57.9883 15.8563 57.9883 16.7448L57.9888 16.7454Z" fill="#F40846"/>
<path d="M45.8657 13.0493C44.7717 13.0493 43.8963 13.4868 43.0213 14.7756L39.6178 19.9053L39.9337 15.918C40.0311 14.4107 39.083 13.0493 37.4052 13.0493C35.849 13.0493 34.8767 14.0948 34.7793 15.4321L34.2444 22.7744C34.1228 24.598 35.0709 25.643 36.5782 25.643C38.0854 25.643 39.0335 24.549 39.7389 23.552L43.0208 18.5681L42.7291 22.7739C42.5833 24.4759 43.5072 25.6425 45.1845 25.6425C46.7407 25.6425 47.7615 24.7186 47.8588 23.333L48.3938 15.918C48.5153 14.4592 47.8109 13.0493 45.8657 13.0493Z" fill="#F40846"/>
<defs>
<linearGradient id="paint0_linear_435_8627" x1="29.6025" y1="49.2963" x2="0.0138328" y2="5.03706" gradientUnits="userSpaceOnUse">
<stop offset="0.798" stop-color="#F30745"/>
<stop offset="0.977" stop-color="#FFBCCE"/>
</linearGradient>
<linearGradient id="paint1_linear_435_8627" x1="12.8463" y1="19.2841" x2="7.58743" y2="18.6165" gradientUnits="userSpaceOnUse">
<stop offset="0.15" stop-color="white"/>
<stop offset="0.62" stop-color="white" stop-opacity="0.6"/>
<stop offset="1" stop-color="white" stop-opacity="0"/>
</linearGradient>
<linearGradient id="paint2_linear_435_8627" x1="7.99628" y1="25.551" x2="9.42292" y2="17.77" gradientUnits="userSpaceOnUse">
<stop offset="0.15" stop-color="white"/>
<stop offset="0.62" stop-color="white" stop-opacity="0.6"/>
<stop offset="1" stop-color="white" stop-opacity="0"/>
</linearGradient>
</defs>
</svg>
