<svg width="64" height="20" viewBox="0 0 64 20" fill="none" xmlns="http://www.w3.org/2000/svg">
<path fill-rule="evenodd" clip-rule="evenodd" d="M7.8034 17.0616H10.5658V0.749268H6.53308C2.50032 0.749268 0.362949 2.87876 0.362949 6.0213C0.362949 8.52293 1.53245 10.0115 3.60933 11.5414L0 17.0616H3.00441L7.03718 10.9005L5.64587 9.92881C3.95211 8.75036 3.12539 7.84067 3.12539 5.87658C3.12539 4.13991 4.31506 2.96145 6.57341 2.96145H7.8034V17.0616ZM61.1771 17.289C62.4272 17.289 63.3346 17.0616 64 16.5654V14.2912C63.3144 14.7874 62.4877 15.0975 61.3384 15.0975C59.4026 15.0975 58.5961 13.5469 58.5961 11.1073C58.5961 8.66766 59.5841 7.24111 61.3585 7.24111C62.4071 7.24111 63.4354 7.61325 63.9798 7.96472V5.58713C63.4153 5.25634 62.4071 5.02892 61.0561 5.02892C57.5879 5.02892 55.7732 7.59257 55.7732 11.1693C55.7732 15.1181 57.5274 17.289 61.1771 17.289ZM44.1588 16.2553V13.981C43.3119 14.5599 41.9004 15.0768 40.5696 15.0768C38.5734 15.0768 37.8274 14.1051 37.7064 12.141H44.2798V10.6731C44.2798 6.55884 42.5255 5.02892 39.8034 5.02892C36.4965 5.02892 34.9036 7.63392 34.9036 11.19C34.9036 15.3042 36.8797 17.289 40.3478 17.289C42.0819 17.289 43.3724 16.8135 44.1588 16.2553ZM19.2161 5.25634V9.92881H15.5866V5.25634H12.8645V17.0616H15.5866V12.141H19.2161V17.0616H21.9382V5.25634H19.2161ZM34.218 14.8494H33.0082V5.25634H25.0636V6.2694C25.0636 9.16385 24.8822 12.8853 23.9143 14.8494H23.0674V19.7493H25.5879V17.0616H31.6975V19.7493H34.218V14.8494ZM52.8494 17.0616L48.8166 11.2727V17.0616H46.0945V5.25634H48.8166V10.6938L52.6679 5.25634H55.4102L51.5589 10.6938L55.9345 17.0409H52.8494V17.0616ZM39.7429 7.24111C41.0939 7.24111 41.4972 8.39889 41.4972 9.86679V10.0942H37.7064C37.7669 8.21281 38.4323 7.24111 39.7429 7.24111ZM30.2861 14.87H26.4348C27.1808 13.092 27.4026 9.86679 27.4026 7.84067V7.4892H30.2861V14.87Z" fill="black"/>
</svg>
