<svg width="119" height="23" viewBox="0 0 119 23" fill="none" xmlns="http://www.w3.org/2000/svg">
<path d="M11.8609 0.290084V11.637C11.8609 12.1676 11.4694 12.535 10.9997 12.535H9.7079C9.62961 12.535 9.59046 12.6166 9.59046 12.6574V22.1676C9.90362 22.1676 10.2168 22.2493 10.5691 22.2493C16.4016 22.2493 21.1382 17.3105 21.1382 11.2289C21.1382 5.63702 17.1063 0.943145 11.8609 0.290084ZM11.626 17.2697C10.8822 17.2697 10.3342 16.6166 10.3342 15.9227C10.3342 15.1472 10.9605 14.5758 11.626 14.5758C12.3697 14.5758 12.9178 15.2289 12.9178 15.9227C12.9961 16.6574 12.3697 17.2697 11.626 17.2697ZM14.7184 17.2697C13.9747 17.2697 13.4266 16.6166 13.4266 15.9227C13.4266 15.1472 14.053 14.5758 14.7184 14.5758C15.4622 14.5758 16.0102 15.2289 16.0102 15.9227C16.0102 16.6166 15.5013 17.2697 14.7184 17.2697ZM17.85 17.2697C17.1062 17.2697 16.5582 16.6166 16.5582 15.9227C16.5582 15.1472 17.1845 14.5758 17.85 14.5758C18.5938 14.5758 19.1418 15.2289 19.1418 15.9227C19.1418 16.6166 18.5938 17.2697 17.85 17.2697Z" fill="#00B956"/>
<path d="M10.5691 0.249268C4.73651 0.249268 0 5.18804 0 11.2697C0 16.6166 3.56217 20.984 8.33783 22.0044V12.086C8.33783 11.637 8.72928 11.2697 9.12072 11.188H10.4125C10.4908 11.188 10.5299 11.1064 10.5299 11.0656L10.5691 0.249268ZM8.53355 9.31049C7.7898 9.31049 7.24178 8.65743 7.24178 7.96355C7.24178 7.18804 7.86809 6.61661 8.53355 6.61661C9.2773 6.61661 9.82533 7.26968 9.82533 7.96355C9.82533 8.65743 9.23816 9.31049 8.53355 9.31049Z" fill="#00B956"/>
<path d="M116.377 6.24927V10.4125H111.054V6.24927H108.353V17.2697H111.054V12.8207H116.377V17.2697H119V6.24927H116.377ZM72.3786 7.51457C71.948 6.53498 71.0868 6.00437 70.2257 6.00437C69.3645 6.00437 68.4641 6.53498 68.0727 7.51457L63.8059 17.3105H66.6243L67.5638 14.984H73.0441L73.9836 17.3105H76.802L72.3786 7.51457ZM68.3076 12.7799L69.9125 8.73906C69.9908 8.61661 70.0299 8.61661 70.1082 8.61661C70.1865 8.61661 70.3039 8.61661 70.3039 8.73906L71.9089 12.7799H68.3076ZM40.9062 4.29008C39.6536 4.29008 38.8707 4.98396 38.2836 6.37172L34.878 14.6574L31.4332 6.3309C30.8852 4.98396 30.0632 4.24927 28.8105 4.24927C27.6362 4.24927 26.4618 5.06559 26.4618 6.98396V17.2289H29.0845V7.35131L32.5684 15.5554C32.999 16.7391 33.8211 17.4329 34.878 17.4329C36.0132 17.4329 36.7569 16.7391 37.1875 15.5554L40.6714 7.35131V17.3513H43.2941V7.10641C43.2549 5.18804 42.0806 4.29008 40.9062 4.29008ZM47.9132 14.9431C47.7957 14.9431 47.6391 14.8207 47.6391 14.6574V12.6982H54.2155V10.4534H47.6391V8.77988C47.6391 8.65743 47.7566 8.49417 47.9132 8.49417H54.4503V6.16763H46.6214C45.6819 6.16763 45.0556 6.94314 45.0556 7.80029V15.5146C45.0556 16.3309 45.7211 17.1472 46.6214 17.1472H54.4503V14.8207H47.9132V14.9431ZM58.8737 17.2697V8.86151C58.8737 8.73906 58.9911 8.5758 59.1477 8.5758H65.6849V6.24927H57.8559C56.9165 6.24927 56.2901 7.02478 56.2901 7.88192V17.2289L58.8737 17.2697ZM106.63 11.8003C106.63 7.96355 105.025 6.16763 101.033 6.16763H100.093C96.1003 6.16763 94.4954 8.00437 94.4954 11.8003C94.4954 15.5554 96.1003 17.4329 100.093 17.4329H100.954C105.025 17.3513 106.63 15.5554 106.63 11.8003ZM100.954 15.1064H100.093C97.9401 15.1064 97.0398 14.086 97.0398 11.8003C97.0398 9.59621 97.7836 8.49417 100.093 8.49417H100.954C103.186 8.49417 104.008 9.59621 104.008 11.8003C104.008 14.0452 103.186 15.1064 100.954 15.1064ZM87.1753 4.53498H81.9299C78.0155 4.53498 76.4497 6.61661 76.4497 10.1676C76.4497 10.7391 76.528 11.2697 76.5671 11.7187C76.9977 14.2493 78.4461 15.8003 82.0865 15.8003H83.2609V17.2289H85.8836V15.8003H87.0188C90.6984 15.8003 92.1467 14.2493 92.5382 11.7187C92.6164 11.2697 92.6556 10.7391 92.6556 10.1676C92.6165 6.61661 91.0115 4.53498 87.1753 4.53498ZM82.0082 13.5146C80.2076 13.5146 79.5813 12.8207 79.1898 11.6778C79.0724 11.2697 79.0724 10.6982 79.0724 10.1268C79.0724 7.80029 80.1293 6.8207 81.6168 6.8207H83.2217V13.5146H82.0082ZM89.9155 11.8003C89.524 12.9023 88.8586 13.637 87.097 13.637H85.9227V6.90233H87.5276C89.0151 6.90233 90.072 7.88192 90.072 10.2085C90.0329 10.8207 90.0329 11.3105 89.9155 11.8003Z" fill="#00B956"/>
</svg>
