<svg width="1626" height="1076" viewBox="0 0 1626 1076" fill="none" xmlns="http://www.w3.org/2000/svg">
<g opacity="0.6" filter="url(#filter0_d_74_322)">
<path fill-rule="evenodd" clip-rule="evenodd" d="M215.122 303.113C254.647 303.113 290.428 319.13 316.322 345.008C342.235 370.886 358.243 406.644 358.243 446.144C358.243 485.645 342.216 521.403 316.322 547.281C290.428 573.159 254.647 589.176 215.122 589.176C175.596 589.176 139.815 573.159 113.921 547.281C88.027 521.403 72 485.645 72 446.144C72 406.644 88.027 370.886 113.921 345.008C139.815 319.13 175.596 303.113 215.122 303.113ZM489.064 170.019V1276.38V1330L719.716 1271.58V954.828H825.08C896.869 954.828 959.589 945.594 1013.87 929.14C1122.06 896.347 1212.79 829.087 1261.02 725.063C1307.66 624.496 1307.66 500.332 1261.02 399.766C1212.79 295.722 1122.06 228.463 1013.87 195.688C959.589 179.234 896.869 170 825.08 170C707.472 170 600.949 170 489.064 170V170.019ZM719.716 730.345H831.107C871.925 730.345 906.622 726.051 935.824 718.413C986.016 705.284 1031.87 679.216 1055.2 631.051C1074.44 591.341 1075.28 539.776 1058.01 499.173C1037.39 450.609 993.963 423.116 944.76 408.62C915.006 399.861 879.264 394.712 836.81 394.313V394.484H719.697V730.326L719.716 730.345ZM215.122 848.505C254.647 848.505 290.428 864.522 316.322 890.4C342.235 916.278 358.243 952.035 358.243 991.536C358.243 1031.04 342.216 1066.79 316.322 1092.67C290.428 1118.55 254.647 1134.57 215.122 1134.57C175.596 1134.57 139.815 1118.55 113.921 1092.67C88.027 1066.79 72 1031.04 72 991.536C72 952.035 88.027 916.278 113.921 890.4C139.815 864.522 175.596 848.505 215.122 848.505Z" fill="#ED0644"/>
</g>
<defs>
<filter id="filter0_d_74_322" x="-98" y="0" width="1724" height="1660" filterUnits="userSpaceOnUse" color-interpolation-filters="sRGB">
<feFlood flood-opacity="0" result="BackgroundImageFix"/>
<feColorMatrix in="SourceAlpha" type="matrix" values="0 0 0 0 0 0 0 0 0 0 0 0 0 0 0 0 0 0 127 0" result="hardAlpha"/>
<feOffset dx="80" dy="80"/>
<feGaussianBlur stdDeviation="125"/>
<feComposite in2="hardAlpha" operator="out"/>
<feColorMatrix type="matrix" values="0 0 0 0 0 0 0 0 0 0 0 0 0 0 0 0 0 0 0.2 0"/>
<feBlend mode="normal" in2="BackgroundImageFix" result="effect1_dropShadow_74_322"/>
<feBlend mode="normal" in="SourceGraphic" in2="effect1_dropShadow_74_322" result="shape"/>
</filter>
</defs>
</svg>
