<svg width="1080" height="235" viewBox="0 0 1080 235" fill="none" xmlns="http://www.w3.org/2000/svg">
<path d="M897.009 234.822C889.119 234.948 881.27 233.642 873.838 230.968C867.408 228.596 861.613 224.75 856.909 219.736C852.18 214.531 848.638 208.347 846.531 201.617C844.076 193.685 842.887 185.41 843.009 177.102V57.7277C842.889 49.4196 844.079 41.145 846.535 33.2134C848.641 26.4839 852.182 20.2998 856.909 15.0945C861.614 10.0805 867.409 6.23567 873.839 3.86275C888.866 -1.27558 905.154 -1.27558 920.18 3.86275C926.609 6.23637 932.404 10.0811 937.109 15.0945C941.838 20.2992 945.38 26.4834 947.486 33.2134C949.94 41.1456 951.129 49.4199 951.009 57.7277V177.102C951.128 185.41 949.937 193.685 947.482 201.617C945.377 208.346 941.837 214.531 937.109 219.736C932.406 224.749 926.612 228.594 920.184 230.968C912.751 233.643 904.901 234.948 897.009 234.822ZM898.509 34.2736C895.898 34.2283 893.298 34.6424 890.827 35.497C888.595 36.2977 886.593 37.6419 885 39.4102C883.267 41.4267 882.002 43.8085 881.3 46.3811C880.38 49.767 879.945 53.2683 880.009 56.7784V180.068C879.946 183.578 880.381 187.079 881.302 190.465C882.005 193.038 883.269 195.42 885.002 197.436C886.595 199.205 888.597 200.549 890.829 201.35C895.824 202.98 901.201 202.98 906.195 201.35C908.428 200.549 910.43 199.205 912.022 197.436C913.756 195.419 915.02 193.037 915.722 190.465C916.641 187.079 917.075 183.578 917.009 180.068V56.7784C917.073 53.2685 916.637 49.7676 915.716 46.3821C915.014 43.8095 913.75 41.4278 912.016 39.4112C910.424 37.6429 908.422 36.2986 906.189 35.498C903.719 34.6433 901.12 34.229 898.509 34.2736ZM176.009 234.822C168.119 234.948 160.271 233.642 152.839 230.968C146.409 228.596 140.613 224.75 135.909 219.736C131.18 214.531 127.638 208.347 125.531 201.617C123.076 193.685 121.887 185.41 122.009 177.102V57.7277C121.888 49.4196 123.078 41.1449 125.535 33.2134C127.641 26.484 131.182 20.3002 135.909 15.0955C140.613 10.0807 146.409 6.23544 152.839 3.86275C160.271 1.19025 168.119 -0.115069 176.009 0.00898706C183.9 -0.115825 191.748 1.18951 199.18 3.86275C205.61 6.23637 211.405 10.0815 216.109 15.0955C220.839 20.2997 224.381 26.484 226.487 33.2144C228.943 41.1458 230.132 49.4201 230.009 57.7277V177.102C230.131 185.411 228.941 193.685 226.483 201.617C224.377 208.346 220.837 214.531 216.109 219.736C211.406 224.75 205.613 228.595 199.184 230.968C191.751 233.643 183.901 234.948 176.009 234.822ZM174.509 34.2736C171.897 34.2275 169.297 34.6412 166.826 35.496C164.594 36.299 162.592 37.6445 160.999 39.4133C159.266 41.4302 158.002 43.8123 157.299 46.3851C156.38 49.7698 155.945 53.2697 156.009 56.7784V180.068C155.946 183.578 156.381 187.079 157.302 190.465C158.005 193.038 159.269 195.42 161.002 197.436C162.596 199.204 164.597 200.548 166.829 201.35C171.824 202.98 177.202 202.98 182.196 201.35C184.429 200.548 186.43 199.204 188.023 197.436C189.755 195.418 191.019 193.037 191.723 190.465C192.643 187.079 193.076 183.578 193.009 180.068V56.7784C193.074 53.2685 192.638 49.7674 191.716 46.3821C191.013 43.8096 189.749 41.4277 188.016 39.4102C186.423 37.6425 184.422 36.2984 182.189 35.497C179.719 34.642 177.12 34.228 174.509 34.2736ZM53.5093 234.822C45.6013 234.956 37.7342 233.65 30.2863 230.968C23.9073 228.604 18.1721 224.755 13.5473 219.736C8.89705 214.514 5.43681 208.329 3.40927 201.617C1.03592 193.669 -0.110806 185.401 0.0092734 177.102V57.7277C-0.110679 49.4289 1.03605 41.1609 3.40927 33.2134C5.43763 26.5015 8.89778 20.3178 13.5473 15.0955C18.1723 10.0761 23.9074 6.2276 30.2863 3.86275C37.7345 1.18183 45.6013 -0.123644 53.5093 0.00898706C61.4169 -0.12403 69.2835 1.18145 76.7313 3.86275C83.1114 6.22576 88.8472 10.0746 93.4713 15.0955C98.1207 20.3179 101.581 26.5016 103.609 33.2134C105.982 41.161 107.129 49.429 107.009 57.7277V80.0269H73.0823V55.437C73.0823 47.5763 71.3953 41.7009 68.0663 37.9742C65.0063 34.5477 60.4373 32.8093 54.4883 32.8093C48.5393 32.8093 43.9703 34.5427 40.9093 37.9701C37.5803 41.6969 35.8933 47.5763 35.8933 55.437V179.394C35.8933 187.341 37.5343 192.999 40.9093 196.695C43.9873 200.06 48.4293 201.696 54.4883 201.696C60.5473 201.696 64.9883 200.061 68.0663 196.695C71.4413 193 73.0823 187.342 73.0823 179.394V137.093H56.7713V104.297H107.009V177.102C107.129 185.401 105.983 193.669 103.609 201.617C101.581 208.329 98.1208 214.513 93.4713 219.736C88.8475 224.757 83.1116 228.606 76.7313 230.968C69.2837 233.65 61.417 234.956 53.5093 234.822ZM404.009 231.799H367.859V134.187H327.509V231.799H292.009V4.04011H327.509V101.651H367.859V4.04011H404.009V231.799ZM540.009 231.799H503.97L497.801 190.48H453.97L447.801 231.799H415.009L451.373 4.04011H503.646L540.009 231.799ZM476.009 43.3436L459.009 159.239H493.009L476.009 43.3436ZM1004.71 231.799H969.009V4.04011H1022.89C1027.2 4.01885 1031.51 4.28819 1035.79 4.84634C1039.51 5.33354 1043.18 6.14791 1046.77 7.28013C1049.95 8.29173 1053.01 9.65552 1055.89 11.3465C1061.25 14.4954 1065.7 18.9968 1068.81 24.4074C1070.44 27.2552 1071.76 30.2761 1072.73 33.4149C1073.81 36.8968 1074.58 40.4673 1075.04 44.0853C1075.56 48.1777 1075.81 52.3 1075.79 56.4256V74.3198C1075.79 98.0107 1068.15 113.119 1052.42 120.523C1056.61 122.233 1060.42 124.743 1063.66 127.915C1066.73 131.014 1069.2 134.657 1070.96 138.662C1074.43 146.382 1076.12 156.307 1076.12 169.003V204.142C1076.12 214.926 1076.4 223.223 1080.01 231.798H1043.66L1043.56 231.502C1041.66 225.801 1040.41 222.034 1040.41 203.817V168.026C1040.5 163.505 1040.04 158.989 1039.05 154.58C1038.33 151.306 1036.89 148.24 1034.82 145.616C1032.89 143.312 1030.38 141.583 1027.54 140.619C1024.16 139.498 1020.61 138.973 1017.04 139.068H1004.71V231.799ZM1005.01 36.2891V106.834H1018.82C1025.85 106.834 1030.93 105.121 1034.35 101.584C1038.16 97.654 1040.01 91.4249 1040.01 82.5534V59.9136C1040.01 51.6276 1038.61 45.7512 1035.71 41.9498C1032.81 38.1485 1028.34 36.2891 1022.03 36.2891H1005.01ZM585.709 231.799H550.009V4.04011H603.887C608.2 4.01985 612.51 4.28919 616.787 4.84634C620.51 5.33258 624.184 6.14696 627.766 7.28013C630.947 8.29233 634.006 9.6561 636.889 11.3465C639.562 12.9271 642.025 14.8442 644.217 17.0516C646.385 19.2538 648.265 21.726 649.81 24.4084C651.443 27.2558 652.758 30.2767 653.73 33.416C654.806 36.8983 655.578 40.4687 656.037 44.0863C656.556 48.1788 656.809 52.301 656.793 56.4266V74.3198C656.793 98.0107 649.149 113.119 633.425 120.523C641.742 123.861 648.409 130.383 651.966 138.663C655.433 146.39 657.119 156.315 657.119 169.004V204.143C657.119 214.935 657.398 223.236 661.012 231.799H624.663L624.563 231.497C622.663 225.813 621.416 222.059 621.416 203.813V168.026C621.502 163.505 621.043 158.989 620.047 154.58C619.334 151.306 617.888 148.24 615.818 145.616C612.111 141.149 606.464 139.066 598.047 139.066H585.709V231.799ZM586.009 36.2891V106.834H599.817C606.85 106.834 611.931 105.121 615.35 101.584C619.158 97.65 621.009 91.4249 621.009 82.5534V59.9136C621.009 51.6286 619.609 45.7522 616.714 41.9488C613.819 38.1455 609.343 36.2891 603.027 36.2891H586.009ZM731.121 231.799H675.009V4.04011H731.121C739.017 3.89828 746.877 5.1402 754.35 7.71046C760.632 9.93512 766.296 13.6409 770.868 18.5189C775.422 23.5819 778.793 29.608 780.734 36.1551C783.036 43.999 784.14 52.1501 784.009 60.3288V175.51C784.139 183.687 783.035 191.836 780.734 199.679C778.797 206.229 775.426 212.258 770.868 217.32C766.296 222.198 760.632 225.904 754.35 228.128C746.877 230.699 739.017 231.941 731.121 231.799ZM712.009 36.2891V199.55H731.975C737.927 199.55 742.259 197.921 745.219 194.57C746.901 192.579 748.117 190.232 748.776 187.703C749.657 184.324 750.072 180.839 750.009 177.346V58.4926C750.072 54.9996 749.657 51.5146 748.776 48.1356C748.117 45.6066 746.901 43.2596 745.219 41.2686C742.259 37.9177 737.928 36.2891 731.975 36.2891H712.009Z" fill="white"/>
</svg>
