<svg width="814" height="235" viewBox="0 0 814 235" fill="none" xmlns="http://www.w3.org/2000/svg">
<path d="M476.009 234.823C468.119 234.949 460.27 233.644 452.838 230.97C446.409 228.596 440.614 224.751 435.909 219.737C431.18 214.532 427.638 208.348 425.531 201.617C423.077 193.686 421.888 185.412 422.009 177.104V57.7292C421.889 49.4212 423.079 41.1468 425.535 33.215C427.64 26.4848 431.181 20.3003 435.909 15.095C440.612 10.0812 446.406 6.23601 452.834 3.86229C467.86 -1.27618 484.149 -1.27618 499.175 3.86229C505.606 6.23523 511.403 10.0804 516.109 15.095C520.838 20.2998 524.379 26.4839 526.486 33.2139C528.941 41.1462 530.13 49.421 530.009 57.7292V177.104C530.128 185.412 528.938 193.686 526.482 201.617C524.376 208.348 520.834 214.532 516.105 219.737C511.402 224.751 505.608 228.596 499.18 230.97C491.748 233.644 483.899 234.949 476.009 234.823ZM475.509 32.2586C472.897 32.212 470.297 32.626 467.826 33.482C465.593 34.2828 463.592 35.6275 461.999 37.3962C460.266 39.4129 459.001 41.7946 458.299 44.3671C457.38 47.7533 456.946 51.2544 457.009 54.7644V178.053C456.946 181.563 457.382 185.064 458.302 188.45C459.004 191.022 460.268 193.404 462.002 195.421C463.595 197.189 465.596 198.534 467.829 199.335C472.824 200.965 478.201 200.965 483.196 199.335C485.429 198.534 487.43 197.189 489.023 195.421C490.756 193.404 492.02 191.022 492.723 188.45C493.641 185.064 494.074 181.563 494.009 178.053V54.7644C494.071 51.2542 493.636 47.7531 492.716 44.3671C492.013 41.7948 490.749 39.4132 489.016 37.3962C487.423 35.6274 485.422 34.2828 483.189 33.482C480.719 32.6264 478.12 32.2123 475.509 32.2586ZM176.009 234.823C168.119 234.95 160.27 233.645 152.839 230.97C146.409 228.596 140.614 224.751 135.909 219.737C131.18 214.532 127.638 208.348 125.531 201.617C123.076 193.686 121.888 185.412 122.009 177.104V57.7292C121.889 49.4212 123.079 41.1467 125.535 33.215C127.641 26.4849 131.181 20.3004 135.909 15.095C140.612 10.0812 146.406 6.23601 152.834 3.86229C160.267 1.18718 168.117 -0.117872 176.009 0.00954633C183.9 -0.117086 191.748 1.18831 199.18 3.86331C205.609 6.23661 211.404 10.0814 216.109 15.095C220.838 20.2998 224.38 26.4839 226.487 33.2139C228.942 41.1462 230.13 49.4211 230.009 57.7292V177.104C230.129 185.412 228.939 193.686 226.483 201.617C224.377 208.348 220.834 214.533 216.105 219.737C211.402 224.751 205.608 228.596 199.18 230.97C191.748 233.645 183.899 234.95 176.009 234.823ZM174.509 32.2586C171.897 32.212 169.297 32.626 166.826 33.482C164.593 34.2828 162.592 35.6274 160.999 37.3962C159.266 39.4132 158.002 41.7948 157.299 44.3671C156.379 47.7531 155.945 51.2543 156.009 54.7644V178.053C155.946 181.563 156.381 185.064 157.302 188.45C158.005 191.022 159.269 193.404 161.002 195.421C162.595 197.189 164.596 198.534 166.829 199.335C171.824 200.965 177.201 200.965 182.196 199.335C184.429 198.534 186.43 197.189 188.023 195.421C189.756 193.404 191.021 191.022 191.723 188.45C192.641 185.064 193.074 181.563 193.009 178.053V54.7644C193.071 51.2542 192.636 47.7531 191.716 44.3671C191.014 41.7946 189.749 39.4129 188.016 37.3962C186.423 35.6274 184.422 34.2828 182.189 33.482C179.719 32.6264 177.12 32.2123 174.509 32.2586ZM53.509 234.823C45.6009 234.959 37.7336 233.653 30.286 230.97C23.9069 228.605 18.1718 224.757 13.547 219.737C8.89749 214.514 5.43736 208.33 3.40899 201.617C1.03414 193.67 -0.11262 185.403 0.00899396 177.104V57.7292C-0.112532 49.4304 1.03423 41.1622 3.40899 33.215C5.43518 26.5029 8.89367 20.3187 13.542 15.096C18.167 10.0767 23.9021 6.22817 30.281 3.86331C37.7302 1.17971 45.5992 -0.125836 53.509 0.00954633C61.4174 -0.125172 69.285 1.18036 76.733 3.86331C83.1119 6.22817 88.847 10.0767 93.472 15.096C98.1217 20.3184 101.582 26.5026 103.609 33.215C105.984 41.1622 107.13 49.4304 107.009 57.7292V80.0274H73.082V55.4376C73.1438 51.9084 72.7061 48.3885 71.782 44.9838C71.0771 42.3973 69.8074 40.0022 68.066 37.9737C66.4652 36.1972 64.4536 34.8471 62.21 34.0433C59.7271 33.1819 57.1135 32.7658 54.488 32.8139C51.8625 32.7658 49.2489 33.1819 46.766 34.0433C44.5222 34.8472 42.5102 36.1973 40.909 37.9737C39.1681 40.0026 37.8986 42.3976 37.193 44.9838C36.269 48.3885 35.8313 51.9084 35.893 55.4376V179.395C35.8292 182.907 36.267 186.41 37.193 189.797C37.8954 192.352 39.1662 194.712 40.909 196.698C42.5188 198.44 44.5309 199.753 46.766 200.521C49.256 201.348 51.8666 201.746 54.488 201.699C57.1094 201.746 59.72 201.348 62.21 200.521C64.4449 199.753 66.4567 198.44 68.066 196.698C69.8083 194.713 71.0791 192.355 71.782 189.801C72.7085 186.413 73.1463 182.908 73.082 179.395V137.088H56.771V104.299H107.009V177.104C107.131 185.403 105.984 193.67 103.609 201.617C101.582 208.329 98.1236 214.514 93.476 219.737C88.8505 224.756 83.1155 228.604 76.737 230.97C69.2878 233.654 61.4187 234.959 53.509 234.823ZM697.009 230.792H663.467V67.4564L638.957 230.792H605.416L578.97 69.7329V230.792H548.009V3.03289H597.353C597.384 3.40577 600.746 43.5115 605.698 83.8873C608.578 107.369 611.398 126.066 614.088 139.474C617.45 156.241 620.608 164.742 623.477 164.742C626.346 164.742 629.402 156.241 632.562 139.474C635.09 126.062 637.689 107.36 640.288 83.8873C644.749 43.584 647.637 3.43399 647.665 3.03289H697.009V230.792ZM404.009 230.792H367.859V133.181H327.509V230.792H292.009V3.03289H327.509V100.644H367.859V3.03289H404.009V230.792ZM813.009 230.792H715.009V3.03289H813.009V35.5702H750.942V99.0171H800.269V131.554H750.942V198.255H813.009V230.792Z" fill="white"/>
</svg>
