<?xml version="1.0" encoding="utf-8"?><svg viewBox="0 0 1626 1076" xmlns="http://www.w3.org/2000/svg" xmlns:xlink="http://www.w3.org/1999/xlink"><style>:root>svg{display:none}:root>svg:target{display:block}</style><svg fill="none" viewBox="0 0 1207 898" id="Ellipse-Big" xmlns="http://www.w3.org/2000/svg"><path fill-rule="evenodd" clip-rule="evenodd" d="M1080.75 584.41c55.02-111.129 60-223.103 14.68-314.699S958.07 114.144 836.344 90.475c-121.81-23.685-268.79-5.46-410.157 64.49-141.367 69.949-245.02 175.737-300.086 286.942-55.028 111.128-60.006 223.102-14.684 314.698 45.323 91.597 137.359 155.568 259.086 179.237 121.81 23.685 268.789 5.459 410.156-64.491 141.367-69.949 245.021-175.737 300.091-286.941ZM816.138 943.054c311.332-154.047 468.472-471.397 350.992-708.822C1049.65-3.193 702.036-70.784 390.708 83.262 79.381 237.31-77.764 554.66 39.715 792.084 157.194 1029.51 504.81 1097.1 816.138 943.054Z" fill="url(#aa)" fill-opacity=".4"/><defs><linearGradient id="aa" x1="30.176" y1="964.283" x2="1552.24" y2="118.186" gradientUnits="userSpaceOnUse"><stop stop-color="#D31044"/><stop offset="1" stop-color="#D31044"/></linearGradient></defs></svg><svg viewBox="0 0 12 12" id="Icon" xmlns="http://www.w3.org/2000/svg"><g clip-path="url(#da)"><path d="m0 12 .22-2.124 4.835-4.92a3.708 3.708 0 0 1 .818-3.89 3.546 3.546 0 0 1 5.077 0 3.703 3.703 0 0 1 0 5.167 3.549 3.549 0 0 1-3.816.834L5.527 8.702l-1.267.117-.115 1.292-1.267.117-.115 1.292L0 12ZM9.001 2a1 1 0 1 0 0 2 1 1 0 0 0 0-2Z"/></g><defs><clipPath id="da"><path d="M0 0h12v12H0z"/></clipPath></defs></svg><svg fill="none" viewBox="0 0 12 12" id="Icon-red" xmlns="http://www.w3.org/2000/svg"><g clip-path="url(#ca)"><path d="m0 12 .22-2.124 4.835-4.92a3.708 3.708 0 0 1 .818-3.89 3.546 3.546 0 0 1 5.077 0 3.703 3.703 0 0 1 0 5.167 3.549 3.549 0 0 1-3.816.834L5.527 8.702l-1.267.117-.115 1.292-1.267.117-.115 1.292L0 12ZM9.001 2a1 1 0 1 0 0 2 1 1 0 0 0 0-2Z" fill="#ED0644"/></g><defs><clipPath id="ca"><path fill="#fff" d="M0 0h12v12H0z"/></clipPath></defs></svg><svg viewBox="0 0 150 78" id="Logo" xmlns="http://www.w3.org/2000/svg"><path d="M34.155 3.564c.822-1.218 1.791-2.07 2.901-2.547C38.158.54 39.21.305 40.185.305c.147 0 .8.06 1.984.177v6.782c-.587-.235-1.24-.353-1.984-.353-1.153 0-2.166.242-3.034.727-.866.486-1.527 1.182-1.998 2.1-.463.91-.698 1.997-.698 3.251v9.073h-7.711V.788h7.41v2.776Zm-16.35 52.418h7.508v10.711c0 2.523.315 4.598 3.303 4.598h.155c2.989 0 3.303-2.075 3.303-4.598V55.982h7.508V67.13c0 2.594-.489 5.107-1.513 6.642-1.832 2.746-6.193 3.692-9.296 3.692h-.155c-3.105 0-7.464-.946-9.296-3.692-1.025-1.535-1.513-4.048-1.513-6.642V55.982h-.004Zm-10.39 2.813c.822-1.219 1.79-2.07 2.9-2.547 2.05-.887 3.04-.742 5.112-.535v6.782c-.588-.235-1.242-.353-1.984-.353-1.153 0-2.168.242-3.034.727-.866.484-1.527 1.182-1.998 2.1-.463.912-.699 1.998-.699 3.252v9.075H.002V56.021h7.41v2.774h.002ZM49.71 47.072c1.58 0 2.761-.558 3.555-1.667.8-1.108 1.197-2.527 1.197-4.237 0-1.688-.397-3.09-1.19-4.2-.794-1.109-1.976-1.659-3.563-1.659-1.594 0-2.784.55-3.576 1.66-.794 1.108-1.19 2.51-1.19 4.199 0 1.71.397 3.127 1.197 4.237.793 1.107 1.983 1.667 3.569 1.667h.001Zm0 5.55c-2.643 0-4.928-.477-6.853-1.438-1.924-.954-3.385-2.299-4.391-4.03-.999-1.733-1.499-3.723-1.499-5.983 0-3.427 1.131-6.18 3.394-8.273 2.255-2.093 5.375-3.136 9.35-3.136 2.622 0 4.897.477 6.822 1.431 1.917.955 3.386 2.3 4.391 4.024 1.007 1.733 1.513 3.715 1.513 5.954 0 2.262-.5 4.251-1.498 5.983-1.007 1.733-2.468 3.076-4.392 4.03-1.924.963-4.208 1.438-6.837 1.438Zm15.762-.793V36.104h-2.775v-5.55h2.775v-5.86h7.711v5.86h3.774v5.55h-3.774V51.83h-7.71ZM79.63 30.555h7.71V51.83h-7.71V30.555Zm22.885 16.518c1.579 0 2.762-.558 3.555-1.667.802-1.107 1.197-2.526 1.197-4.236 0-1.688-.397-3.091-1.19-4.2-.792-1.108-1.976-1.659-3.563-1.659-1.594 0-2.784.55-3.576 1.659-.793 1.109-1.19 2.51-1.19 4.2 0 1.71.397 3.127 1.197 4.236.793 1.108 1.983 1.667 3.569 1.667h.001Zm0 5.55c-2.643 0-4.927-.476-6.852-1.437-1.924-.955-3.386-2.3-4.392-4.03-.998-1.734-1.498-3.723-1.498-5.983 0-3.428 1.132-6.181 3.393-8.274 2.255-2.092 5.376-3.135 9.348-3.135 2.622 0 4.898.477 6.824 1.431 1.916.955 3.385 2.3 4.391 4.024 1.007 1.733 1.513 3.715 1.513 5.954 0 2.262-.5 4.251-1.498 5.982-1.007 1.733-2.468 3.076-4.392 4.03-1.924.963-4.208 1.439-6.838 1.439h.001Zm22.857-19.6c1.668-2.173 3.966-3.26 6.919-3.26 3.121 0 5.171 1 6.132 2.99.963 1.997 1.447 4.214 1.447 6.658v12.421h-7.711V40.11c0-2.665-.911-4.002-2.732-4.002-1.168 0-2.137.47-2.902 1.401-.77.94-1.153 2.217-1.153 3.839V51.83h-7.711V30.557h7.711v2.466Zm16.607 15.593c0-.684.176-1.328.521-1.946a4.067 4.067 0 0 1 1.441-1.49 3.81 3.81 0 0 1 2.048-.572c1.19 0 2.159.403 2.901 1.219.742.814 1.11 1.74 1.11 2.79 0 1.026-.368 1.96-1.11 2.774-.733.822-1.703 1.233-2.901 1.233-1.145 0-2.1-.403-2.864-1.219-.765-.816-1.146-1.748-1.146-2.789ZM7.714 29.923v2.88c1.829-2.027 4.061-3.04 6.698-3.04 3.048 0 5.177 1.087 6.39 3.26.926-1.167 1.916-2.004 2.974-2.503 1.05-.507 2.306-.756 3.761-.756 1.865 0 3.342.41 4.436 1.233 1.093.822 1.843 1.806 2.26 2.966.42 1.16.625 2.312.625 3.465V51.83h-7.711V39.409c0-2.202-.808-3.303-2.43-3.303-.897 0-1.69.345-2.388 1.041-.696.697-1.043 1.785-1.043 3.275V51.83h-7.71V39.409c0-2.202-.809-3.303-2.417-3.303-.903 0-1.703.345-2.401 1.035-.699.696-1.044 1.784-1.044 3.28v11.41H.004V32.445l7.71-2.522Zm48.314-12.52c1.579 0 2.76-.558 3.554-1.667.8-1.109 1.199-2.524 1.199-4.237 0-1.687-.397-3.09-1.19-4.2-.794-1.108-1.976-1.658-3.563-1.658-1.594 0-2.784.55-3.578 1.659-.793 1.107-1.19 2.51-1.19 4.2 0 1.71.397 3.127 1.197 4.236.793 1.108 1.984 1.667 3.569 1.667h.002Zm-.35 5.457c-2.644 0-4.58-.383-6.503-1.346-1.924-.954-3.386-2.297-4.392-4.03-.998-1.733-1.498-3.723-1.498-5.983 0-3.427 1.13-6.18 3.393-8.273 2.255-2.093 5.376-3.134 9.35-3.134 2.622 0 4.898.477 6.822 1.431 1.916.954 3.385 2.299 4.392 4.024 1.006 1.733 1.512 3.714 1.512 5.954 0 2.262-.5 4.25-1.498 5.982-1.006 1.733-2.468 3.076-4.392 4.03-1.924.963-4.557 1.347-7.186 1.347v-.002ZM7.413.793v2.59C8.41 2.145 9.454 1.27 10.54.765 11.636.258 12.928 0 14.42 0c1.579 0 2.988.301 4.244.896 1.249.602 2.292 1.417 3.121 2.452.823 1.035 1.455 2.254 1.887 3.64.434 1.389.654 2.864.654 4.42 0 1.946-.375 3.795-1.117 5.55-.75 1.754-1.872 3.18-3.378 4.266-1.499 1.095-3.305 1.638-5.413 1.638-2.689 0-4.92-.983-6.706-2.958v5.942L0 28.367V.794h7.412Zm5.377 15.725c1.453 0 2.591-.485 3.408-1.454.816-.969 1.219-2.188 1.219-3.656 0-1.453-.403-2.665-1.22-3.626-.816-.963-1.953-1.438-3.407-1.438-1.58 0-2.747.514-3.497 1.55-.75 1.034-1.124 2.201-1.124 3.515 0 1.337.374 2.518 1.124 3.553.757 1.035 1.916 1.556 3.497 1.556Z"/></svg><svg fill="none" viewBox="0 0 123 26" id="Logo-Alfa" xmlns="http://www.w3.org/2000/svg"><path d="m118.781 5.594-4.197 4.667V5.594h-3.037v11.782h3.037v-4.959l4.493 4.96H123l-5.525-6.174 5.125-5.609h-3.819ZM106.193 9.988h-4.197V5.594h-3.039v11.782h3.039v-4.645h4.197v4.645h3.037V5.594h-3.037v4.394ZM18.033 11.977c-.073 2.198-.358 2.637-1.602 2.637v2.762h.464c3.105 0 3.85-1.591 3.966-5.128l.126-3.913h2.91v9.041h3.038V5.594h-8.69l-.21 6.383h-.002ZM34.483 9.173H32.29V5.594h-3.037v11.782h5.272c3.31 0 4.492-2.134 4.492-4.144 0-2.595-1.644-4.061-4.535-4.061m-.23 5.609H32.29v-2.994h1.961c1.055 0 1.687.46 1.687 1.444 0 1.067-.611 1.55-1.687 1.55ZM48.908 5.321V.947H45.87V5.32c-3.48.293-5.82 2.742-5.82 6.153 0 3.411 2.34 5.882 5.82 6.174v4.438h3.037v-4.438c3.48-.272 5.82-2.743 5.82-6.174 0-3.43-2.34-5.882-5.82-6.153Zm-3.037 9.482c-1.687-.231-2.742-1.486-2.742-3.327s1.055-3.098 2.742-3.327v6.656-.002Zm3.037 0V8.147c1.686.23 2.742 1.486 2.742 3.327s-1.056 3.098-2.742 3.327M66.119 13.756V9.801c0-2.888-1.856-4.71-4.977-4.71-3.121 0-4.934 1.927-5.083 3.936h3.08c.104-.44.568-1.193 2.003-1.193 1.182 0 1.94.544 1.94 1.967h-3.017c-2.7 0-4.303 1.402-4.303 3.746 0 2.343 1.754 4.122 4.281 4.122 1.854 0 2.883-.869 3.333-1.527.4.795 1.286 1.234 2.446 1.234h1.055v-2.72c-.549 0-.76-.252-.76-.9m-3.037-.774c0 1.36-.97 2.134-2.235 2.134-1.097 0-1.962-.397-1.962-1.57 0-1.172.95-1.338 1.771-1.338h2.426v.774ZM79.133 7.268h-3.395V3.94h7.867V.947H72.552v16.43h6.58c3.65 0 5.737-1.8 5.737-5.107 0-3.118-2.088-5.002-5.736-5.002Zm-.149 7.136h-3.248v-4.27h3.248c1.687 0 2.637.774 2.637 2.134 0 1.36-.948 2.135-2.637 2.135M96.49 13.756V9.801c0-2.888-1.855-4.71-4.976-4.71s-4.935 1.927-5.083 3.936h3.08c.104-.44.568-1.193 2.003-1.193 1.182 0 1.94.544 1.94 1.967h-3.017c-2.7 0-4.303 1.402-4.303 3.746 0 2.343 1.754 4.122 4.281 4.122 1.854 0 2.883-.869 3.332-1.527.4.795 1.287 1.234 2.447 1.234h1.055v-2.72c-.549 0-.76-.252-.76-.9m-3.037-.774c0 1.36-.97 2.134-2.235 2.134-1.097 0-1.962-.397-1.962-1.57 0-1.172.949-1.338 1.771-1.338h2.426v.774ZM16.24 22.4H0v3.35h16.24V22.4ZM11.073 3.202c-.465-1.37-.998-2.453-2.826-2.453-1.829 0-2.397 1.077-2.884 2.453L.338 17.376H3.67l1.16-3.369h6.412l1.075 3.37h3.543L11.073 3.201ZM5.8 11.16l2.277-6.718h.084l2.151 6.718H5.799 5.8Z" fill="#EF3124"/></svg><svg fill="none" viewBox="0 0 79 38" id="Logo-Ivi" xmlns="http://www.w3.org/2000/svg"><path d="M26.671 21.089c-1.245 10.85-3.836 12.909-14.686 11.664C1.136 31.508-.922 28.916.32 18.067 1.566 7.217 4.158 5.159 15.007 6.404c10.85 1.244 12.909 3.836 11.664 14.686v-.001Z" fill="url(#ha)"/><path d="M17.951 13.05c-1.094 0-1.97.437-2.844 1.726l-3.404 5.13.316-3.988c.097-1.507-.85-2.869-2.529-2.869-1.556 0-2.528 1.046-2.625 2.383l-.535 7.342c-.122 1.824.826 2.869 2.333 2.869 1.508 0 2.456-1.094 3.161-2.091l3.282-4.984-.292 4.206c-.145 1.702.778 2.868 2.456 2.868 1.556 0 2.577-.923 2.674-2.309l.535-7.415c.122-1.459-.583-2.869-2.528-2.869Z" fill="url(#hb)"/><path d="m12.014 15.922-.316 3.987.121 3.647c-.705.997-1.654 2.09-3.16 2.09-1.508 0-2.456-1.044-2.334-2.868l.534-7.342c.098-1.338 1.07-2.383 2.626-2.383 1.678 0 2.626 1.361 2.529 2.869Z" fill="url(#hc)"/><path d="M12.024 15.71c0-1.39-.899-2.661-2.553-2.661-1.653 0-2.612 1.24-2.612 2.577 0 1.434 1.076 2.552 2.583 2.552 1.507 0 2.582-1.034 2.582-2.468Z" fill="#fff"/><path d="M75.987 13.03c-1.083 0-1.984.433-2.839 1.732l-3.408 5.141.308-4.012c.114-1.505-.832-2.86-2.519-2.86-1.573 0-2.541 1.06-2.633 2.393l-.536 7.33c-.125 1.845.82 2.871 2.371 2.871 1.551 0 2.44-1.06 3.123-2.086l3.294-4.98-.296 4.194c-.125 1.721.775 2.872 2.462 2.872 1.562 0 2.565-.923 2.667-2.314l.547-7.42c.103-1.437-.604-2.861-2.541-2.861ZM63.016 22.09c0-1.676-1.277-2.759-2.964-2.975 1.573-.33 2.953-1.368 2.953-3.055 0-1.87-1.448-2.929-4.104-2.918h-5.38c-2.484 0-3.408 1.003-3.602 3.739l-.32 4.582c-.215 3.077.662 4.046 3.694 4.046h5.152c2.963 0 4.57-1.219 4.57-3.419Zm-5.084-.33c0 1.06-.82 1.561-2.189 1.561l-1.45-.011s.228-1.493.374-2.986h1.327c1.14 0 1.938.467 1.938 1.436Zm.057-5.016c0 .912-.74 1.46-2.052 1.46h-1.09s.108-1.663.037-2.862h1.201c1.197 0 1.903.513 1.903 1.402ZM45.866 13.05c-1.094 0-1.97.437-2.845 1.726l-3.403 5.13.316-3.988c.097-1.507-.851-2.869-2.529-2.869-1.556 0-2.528 1.046-2.626 2.383l-.535 7.342c-.121 1.824.827 2.869 2.334 2.869 1.507 0 2.455-1.094 3.16-2.091l3.283-4.984-.292 4.206c-.146 1.702.778 2.868 2.456 2.868 1.556 0 2.576-.923 2.674-2.309l.535-7.415c.121-1.459-.583-2.869-2.528-2.869Z" fill="#F40846"/><defs><linearGradient id="ha" x1="29.602" y1="49.296" x2=".014" y2="5.037" gradientUnits="userSpaceOnUse"><stop offset=".798" stop-color="#F30745"/><stop offset=".977" stop-color="#FFBCCE"/></linearGradient><linearGradient id="hb" x1="12.846" y1="19.284" x2="7.587" y2="18.616" gradientUnits="userSpaceOnUse"><stop offset=".15" stop-color="#fff"/><stop offset=".62" stop-color="#fff" stop-opacity=".6"/><stop offset="1" stop-color="#fff" stop-opacity="0"/></linearGradient><linearGradient id="hc" x1="7.996" y1="25.551" x2="9.423" y2="17.77" gradientUnits="userSpaceOnUse"><stop offset=".15" stop-color="#fff"/><stop offset=".62" stop-color="#fff" stop-opacity=".6"/><stop offset="1" stop-color="#fff" stop-opacity="0"/></linearGradient></defs></svg><svg fill="none" viewBox="0 0 119 23" id="Logo-Megafon" xmlns="http://www.w3.org/2000/svg"><path d="M11.86.29v11.347c0 .53-.39.898-.86.898H9.708c-.078 0-.118.082-.118.122v9.51c.314 0 .627.082.98.082 5.832 0 10.568-4.938 10.568-11.02 0-5.592-4.032-10.286-9.277-10.939Zm-.234 16.98c-.744 0-1.292-.653-1.292-1.347 0-.776.627-1.347 1.292-1.347.744 0 1.292.653 1.292 1.347.078.734-.548 1.347-1.292 1.347Zm3.092 0c-.743 0-1.291-.653-1.291-1.347 0-.776.626-1.347 1.291-1.347.744 0 1.292.653 1.292 1.347s-.509 1.347-1.292 1.347Zm3.132 0c-.744 0-1.292-.653-1.292-1.347 0-.776.627-1.347 1.292-1.347.744 0 1.292.653 1.292 1.347s-.548 1.347-1.292 1.347Z" fill="#00B956"/><path d="M10.57.25C4.736.25 0 5.187 0 11.27c0 5.347 3.562 9.714 8.338 10.734v-9.918c0-.449.391-.816.783-.898h1.291c.079 0 .118-.082.118-.122L10.57.249ZM8.533 9.31c-.744 0-1.292-.653-1.292-1.346 0-.776.626-1.347 1.292-1.347.743 0 1.291.653 1.291 1.347 0 .693-.587 1.346-1.291 1.346ZM116.377 6.25v4.162h-5.323V6.25h-2.701v11.02h2.701v-4.448h5.323v4.449H119V6.25h-2.623ZM72.379 7.514c-.431-.98-1.292-1.51-2.153-1.51s-1.762.53-2.153 1.51l-4.267 9.796h2.818l.94-2.327h5.48l.94 2.327h2.818l-4.423-9.796Zm-4.071 5.265 1.604-4.04c.079-.123.118-.123.196-.123.078 0 .196 0 .196.122l1.605 4.04h-3.601ZM40.906 4.29c-1.252 0-2.035.694-2.622 2.082l-3.406 8.285-3.445-8.326c-.548-1.347-1.37-2.082-2.622-2.082-1.175 0-2.35.817-2.35 2.735v10.245h2.623V7.35l3.484 8.204c.431 1.184 1.253 1.878 2.31 1.878 1.135 0 1.879-.694 2.31-1.878l3.483-8.204v10h2.623V7.106c-.04-1.918-1.213-2.816-2.388-2.816Zm7.007 10.653a.3.3 0 0 1-.274-.286v-1.959h6.576v-2.245H47.64V8.78c0-.123.118-.286.274-.286h6.537V6.168h-7.829c-.94 0-1.565.775-1.565 1.632v7.715c0 .816.665 1.632 1.565 1.632h7.83v-2.326h-6.538v.122Zm10.96 2.327V8.862c0-.123.118-.286.275-.286h6.537V6.249h-7.83c-.938 0-1.565.776-1.565 1.633v9.347l2.584.04Zm47.757-5.47c0-3.836-1.605-5.632-5.597-5.632h-.94c-3.993 0-5.598 1.836-5.598 5.632 0 3.755 1.605 5.633 5.598 5.633h.861c4.071-.082 5.676-1.878 5.676-5.633Zm-5.676 3.306h-.861c-2.153 0-3.053-1.02-3.053-3.306 0-2.204.744-3.306 3.053-3.306h.861c2.232 0 3.054 1.102 3.054 3.306 0 2.245-.822 3.306-3.054 3.306ZM87.175 4.535H81.93c-3.915 0-5.48 2.082-5.48 5.633 0 .571.078 1.102.117 1.55.43 2.531 1.88 4.082 5.52 4.082h1.174v1.429h2.623V15.8h1.135c3.68 0 5.128-1.55 5.52-4.081.077-.45.117-.98.117-1.551-.04-3.551-1.645-5.633-5.48-5.633Zm-5.167 8.98c-1.8 0-2.427-.694-2.818-1.837-.118-.408-.118-.98-.118-1.551 0-2.327 1.057-3.306 2.545-3.306h1.605v6.694h-1.214Zm7.907-1.715c-.391 1.102-1.056 1.837-2.818 1.837h-1.174V6.902h1.605c1.487 0 2.544.98 2.544 3.307-.04.612-.04 1.101-.157 1.591Z" fill="#00B956"/></svg><svg fill="none" viewBox="0 0 62 17" id="Logo-Mts" xmlns="http://www.w3.org/2000/svg"><path d="M1.879 3.322C3.013 1.39 4.373.249 5.523.249s2.51 1.142 3.628 3.073c1.166 1.998 1.863 4.466 1.863 6.615 0 3.14-1.701 6.312-5.507 6.312C1.7 16.25 0 13.076 0 9.937c0-2.15.713-4.617 1.879-6.615ZM26.87 1.106l-2.203 8.528-2.203-8.528h-7.288v14.287h4.13V3.775l2.996 11.618h4.746l2.996-11.635v11.635h4.13V1.106H26.87ZM39.13 4.967h-3.854V1.106h11.856v3.861H43.26v10.426h-4.13V4.967ZM62 4.967h-6.057c-2.576 0-4.276.957-4.276 3.257 0 2.334 1.7 3.29 4.276 3.29H62v3.862h-6.057c-5.556 0-8.536-2.87-8.536-7.135s2.964-7.135 8.536-7.135H62v3.861Z" fill="#E30613"/></svg><svg fill="none" viewBox="0 0 140 14" id="Logo-Tinkoff" xmlns="http://www.w3.org/2000/svg"><path d="M9.62 13.228V4.57h5.565V1.42H0v3.15h5.566v8.658h4.053Zm11.105-4.937V1.42h-3.918v11.81h3.459l6.755-6.873v6.872h3.918V1.42H27.48l-6.755 6.872Zm23.395.546v4.391h3.918V1.42H44.12v4.317h-6.296V1.419h-3.918v11.81h3.918V8.836h6.296Zm14.829 4.391c.89 0 1.702-.074 2.458-.273 2.028-.52 3.35-2.034 3.35-4.093 0-1.96-1.134-3.325-2.943-3.945-.867-.297-1.892-.322-2.865-.322h-4.027V1.419h-3.917v11.81h7.944Zm-.676-5.855c.54 0 1.054 0 1.513.15.649.198 1.027.694 1.027 1.29 0 .62-.378 1.14-1 1.388-.432.174-.864.174-1.54.174h-3.35V7.373h3.35Zm13.51 1.39 4.674 4.465h5.214l-6.51-6.152 6.268-5.657H76.51l-4.729 4.44h-1.08V1.42h-3.917v11.81h3.917V8.762h1.08Zm17.95-7.666c-5.27 0-8.43 2.729-8.43 6.251 0 3.523 3.16 6.252 8.43 6.252 5.243 0 8.405-2.729 8.405-6.252 0-3.522-3.162-6.251-8.405-6.251Zm0 9.626c-2.62 0-4.294-1.44-4.294-3.375S87.113 4 89.733 4c2.594 0 4.297 1.414 4.297 3.35 0 1.935-1.703 3.374-4.297 3.374ZM111.186.749h-3.918V1.94c-4.918.1-7.864 2.01-7.864 5.384 0 3.374 2.946 5.135 7.864 5.234v1.191h3.918v-1.19c4.943-.1 7.889-1.861 7.889-5.235 0-3.374-2.946-5.285-7.889-5.384V.75Zm-3.918 9.279c-2.703-.1-3.892-1.117-3.892-2.704 0-1.588 1.189-2.73 3.892-2.829v5.533Zm3.918-5.533c2.729.1 3.89 1.24 3.89 2.829 0 1.587-1.161 2.605-3.89 2.704V4.495ZM132.109.75h-3.918V1.94c-4.917.1-7.861 2.01-7.861 5.384 0 3.374 2.944 5.135 7.861 5.234v1.191h3.918v-1.19c4.946-.1 7.891-1.861 7.891-5.235 0-3.374-2.945-5.285-7.891-5.384V.75Zm-3.918 9.279c-2.701-.1-3.89-1.117-3.89-2.704 0-1.588 1.189-2.73 3.89-2.829v5.533Zm3.918-5.533c2.73.1 3.892 1.24 3.892 2.829 0 1.587-1.162 2.605-3.892 2.704V4.495Z" fill="#212121"/></svg><svg fill="none" viewBox="0 0 35 35" id="Logo-Vk" xmlns="http://www.w3.org/2000/svg"><path fill-rule="evenodd" clip-rule="evenodd" d="M2.46 2.46C0 4.92 0 8.88 0 16.8v1.4c0 7.92 0 11.88 2.46 14.34C4.92 35 8.88 35 16.8 35h1.4c7.92 0 11.88 0 14.34-2.46C35 30.08 35 26.12 35 18.2v-1.4c0-7.92 0-11.88-2.46-14.34C30.08 0 26.12 0 18.2 0h-1.4C8.88 0 4.92 0 2.46 2.46Zm3.446 8.186c.19 9.1 4.74 14.569 12.717 14.569h.452v-5.207c2.931.292 5.148 2.436 6.037 5.207h4.142c-1.137-4.142-4.127-6.432-5.994-7.307 1.867-1.079 4.492-3.704 5.12-7.262h-3.764c-.816 2.887-3.237 5.512-5.54 5.76v-5.76h-3.764v10.092c-2.333-.584-5.279-3.413-5.41-10.092H5.906Z" fill="#fff"/></svg><svg fill="none" viewBox="0 0 64 20" id="Logo-Yandex" xmlns="http://www.w3.org/2000/svg"><path fill-rule="evenodd" clip-rule="evenodd" d="M7.803 17.062h2.763V.749H6.533C2.5.75.363 2.88.363 6.021c0 2.502 1.17 3.99 3.246 5.52L0 17.061h3.004l4.033-6.16-1.391-.972C3.952 8.75 3.126 7.84 3.126 5.877c0-1.737 1.19-2.916 3.447-2.916h1.23v14.1Zm53.374.227c1.25 0 2.158-.227 2.823-.724v-2.274c-.686.496-1.512.806-2.662.806-1.935 0-2.742-1.55-2.742-3.99 0-2.44.988-3.866 2.763-3.866 1.048 0 2.076.372 2.62.724V5.587c-.564-.33-1.572-.558-2.923-.558-3.468 0-5.283 2.564-5.283 6.14 0 3.95 1.754 6.12 5.404 6.12ZM44.16 16.255v-2.274c-.847.579-2.259 1.096-3.59 1.096-1.996 0-2.742-.972-2.863-2.936h6.574v-1.468c0-4.114-1.755-5.644-4.477-5.644-3.306 0-4.9 2.605-4.9 6.161 0 4.114 1.977 6.099 5.445 6.099 1.734 0 3.024-.476 3.81-1.034ZM19.216 5.256V9.93h-3.63V5.256h-2.722v11.806h2.723V12.14h3.63v4.92h2.721V5.257h-2.722Zm15.002 9.593h-1.21V5.256h-7.944V6.27c0 2.895-.182 6.616-1.15 8.58h-.847v4.9h2.52v-2.687h6.11v2.687h2.521v-4.9Zm18.631 2.213-4.032-5.79v5.79h-2.723V5.256h2.723v5.438l3.85-5.438h2.743l-3.851 5.438 4.376 6.347h-3.086v.02Zm-13.106-9.82c1.35 0 1.754 1.157 1.754 2.625v.227h-3.79c.06-1.881.725-2.853 2.036-2.853Zm-9.457 7.628h-3.851c.746-1.778.968-5.003.968-7.03v-.35h2.883v7.38Z" fill="#000"/></svg><svg viewBox="0 0 150 78" id="LogoBlack" xmlns="http://www.w3.org/2000/svg"><path d="M34.155 3.564c.822-1.218 1.791-2.07 2.901-2.547C38.158.54 39.21.305 40.185.305c.147 0 .8.06 1.984.177v6.782c-.587-.235-1.24-.353-1.984-.353-1.153 0-2.166.242-3.034.727-.866.486-1.527 1.182-1.998 2.1-.463.91-.698 1.997-.698 3.251v9.073h-7.711V.788h7.41v2.776Zm-16.35 52.418h7.508v10.711c0 2.523.315 4.598 3.303 4.598h.155c2.989 0 3.303-2.075 3.303-4.598V55.982h7.508V67.13c0 2.594-.489 5.107-1.513 6.642-1.832 2.746-6.193 3.692-9.296 3.692h-.155c-3.105 0-7.464-.946-9.296-3.692-1.025-1.535-1.513-4.048-1.513-6.642V55.982h-.004Zm-10.39 2.813c.822-1.219 1.79-2.07 2.9-2.547 2.05-.887 3.04-.742 5.112-.535v6.782c-.588-.235-1.242-.353-1.984-.353-1.153 0-2.168.242-3.034.727-.866.484-1.527 1.182-1.998 2.1-.463.912-.699 1.998-.699 3.252v9.075H.002V56.021h7.41v2.774h.002ZM49.71 47.072c1.58 0 2.761-.558 3.555-1.667.8-1.108 1.197-2.527 1.197-4.237 0-1.688-.397-3.09-1.19-4.2-.794-1.109-1.976-1.659-3.563-1.659-1.594 0-2.784.55-3.576 1.66-.794 1.108-1.19 2.51-1.19 4.199 0 1.71.397 3.127 1.197 4.237.793 1.107 1.983 1.667 3.569 1.667h.001Zm0 5.55c-2.643 0-4.928-.477-6.853-1.438-1.924-.954-3.385-2.299-4.391-4.03-.999-1.733-1.499-3.723-1.499-5.983 0-3.427 1.131-6.18 3.394-8.273 2.255-2.093 5.375-3.136 9.35-3.136 2.622 0 4.897.477 6.822 1.431 1.917.955 3.386 2.3 4.391 4.024 1.007 1.733 1.513 3.715 1.513 5.954 0 2.262-.5 4.251-1.498 5.983-1.007 1.733-2.468 3.076-4.392 4.03-1.924.963-4.208 1.438-6.837 1.438Zm15.762-.793V36.104h-2.775v-5.55h2.775v-5.86h7.711v5.86h3.774v5.55h-3.774V51.83h-7.71ZM79.63 30.555h7.71V51.83h-7.71V30.555Zm22.885 16.518c1.579 0 2.762-.558 3.555-1.667.802-1.107 1.197-2.526 1.197-4.236 0-1.688-.397-3.091-1.19-4.2-.792-1.108-1.976-1.659-3.563-1.659-1.594 0-2.784.55-3.576 1.659-.793 1.109-1.19 2.51-1.19 4.2 0 1.71.397 3.127 1.197 4.236.793 1.108 1.983 1.667 3.569 1.667h.001Zm0 5.55c-2.643 0-4.927-.476-6.852-1.437-1.924-.955-3.386-2.3-4.392-4.03-.998-1.734-1.498-3.723-1.498-5.983 0-3.428 1.132-6.181 3.393-8.274 2.255-2.092 5.376-3.135 9.348-3.135 2.622 0 4.898.477 6.824 1.431 1.916.955 3.385 2.3 4.391 4.024 1.007 1.733 1.513 3.715 1.513 5.954 0 2.262-.5 4.251-1.498 5.982-1.007 1.733-2.468 3.076-4.392 4.03-1.924.963-4.208 1.439-6.838 1.439h.001Zm22.857-19.6c1.668-2.173 3.966-3.26 6.919-3.26 3.121 0 5.171 1 6.132 2.99.963 1.997 1.447 4.214 1.447 6.658v12.421h-7.711V40.11c0-2.665-.911-4.002-2.732-4.002-1.168 0-2.137.47-2.902 1.401-.77.94-1.153 2.217-1.153 3.839V51.83h-7.711V30.557h7.711v2.466Zm16.607 15.593c0-.684.176-1.328.521-1.946a4.067 4.067 0 0 1 1.441-1.49 3.81 3.81 0 0 1 2.048-.572c1.19 0 2.159.403 2.901 1.219.742.814 1.11 1.74 1.11 2.79 0 1.026-.368 1.96-1.11 2.774-.733.822-1.703 1.233-2.901 1.233-1.145 0-2.1-.403-2.864-1.219-.765-.816-1.146-1.748-1.146-2.789ZM7.714 29.923v2.88c1.829-2.027 4.061-3.04 6.698-3.04 3.048 0 5.177 1.087 6.39 3.26.926-1.167 1.916-2.004 2.974-2.503 1.05-.507 2.306-.756 3.761-.756 1.865 0 3.342.41 4.436 1.233 1.093.822 1.843 1.806 2.26 2.966.42 1.16.625 2.312.625 3.465V51.83h-7.711V39.409c0-2.202-.808-3.303-2.43-3.303-.897 0-1.69.345-2.388 1.041-.696.697-1.043 1.785-1.043 3.275V51.83h-7.71V39.409c0-2.202-.809-3.303-2.417-3.303-.903 0-1.703.345-2.401 1.035-.699.696-1.044 1.784-1.044 3.28v11.41H.004V32.445l7.71-2.522Zm48.314-12.52c1.579 0 2.76-.558 3.554-1.667.8-1.109 1.199-2.524 1.199-4.237 0-1.687-.397-3.09-1.19-4.2-.794-1.108-1.976-1.658-3.563-1.658-1.594 0-2.784.55-3.578 1.659-.793 1.107-1.19 2.51-1.19 4.2 0 1.71.397 3.127 1.197 4.236.793 1.108 1.984 1.667 3.569 1.667h.002Zm-.35 5.457c-2.644 0-4.58-.383-6.503-1.346-1.924-.954-3.386-2.297-4.392-4.03-.998-1.733-1.498-3.723-1.498-5.983 0-3.427 1.13-6.18 3.393-8.273 2.255-2.093 5.376-3.134 9.35-3.134 2.622 0 4.898.477 6.822 1.431 1.916.954 3.385 2.299 4.392 4.024 1.006 1.733 1.512 3.714 1.512 5.954 0 2.262-.5 4.25-1.498 5.982-1.006 1.733-2.468 3.076-4.392 4.03-1.924.963-4.557 1.347-7.186 1.347v-.002ZM7.413.793v2.59C8.41 2.145 9.454 1.27 10.54.765 11.636.258 12.928 0 14.42 0c1.579 0 2.988.301 4.244.896 1.249.602 2.292 1.417 3.121 2.452.823 1.035 1.455 2.254 1.887 3.64.434 1.389.654 2.864.654 4.42 0 1.946-.375 3.795-1.117 5.55-.75 1.754-1.872 3.18-3.378 4.266-1.499 1.095-3.305 1.638-5.413 1.638-2.689 0-4.92-.983-6.706-2.958v5.942L0 28.367V.794h7.412Zm5.377 15.725c1.453 0 2.591-.485 3.408-1.454.816-.969 1.219-2.188 1.219-3.656 0-1.453-.403-2.665-1.22-3.626-.816-.963-1.953-1.438-3.407-1.438-1.58 0-2.747.514-3.497 1.55-.75 1.034-1.124 2.201-1.124 3.515 0 1.337.374 2.518 1.124 3.553.757 1.035 1.916 1.556 3.497 1.556Z" fill="#212121"/></svg><svg fill="none" viewBox="0 0 150 78" id="headerLogo" xmlns="http://www.w3.org/2000/svg"><path d="M34.155 3.564c.822-1.218 1.791-2.07 2.901-2.547C38.158.54 39.21.305 40.185.305c.147 0 .8.06 1.984.177v6.782c-.587-.235-1.24-.353-1.984-.353-1.153 0-2.166.242-3.034.727-.866.486-1.527 1.182-1.998 2.1-.463.91-.698 1.997-.698 3.251v9.073h-7.711V.788h7.41v2.776Zm-16.35 52.418h7.508v10.711c0 2.523.315 4.598 3.303 4.598h.155c2.989 0 3.303-2.075 3.303-4.598V55.982h7.508V67.13c0 2.594-.489 5.107-1.513 6.642-1.832 2.746-6.193 3.692-9.296 3.692h-.155c-3.105 0-7.464-.946-9.296-3.692-1.025-1.535-1.513-4.048-1.513-6.642V55.982h-.004Zm-10.39 2.813c.822-1.219 1.79-2.07 2.9-2.547 2.05-.887 3.04-.742 5.112-.535v6.782c-.588-.235-1.242-.353-1.984-.353-1.153 0-2.168.242-3.034.727-.866.484-1.527 1.182-1.998 2.1-.463.912-.699 1.998-.699 3.252v9.075H.002V56.021h7.41v2.774h.002ZM49.71 47.072c1.58 0 2.761-.558 3.555-1.667.8-1.108 1.197-2.527 1.197-4.237 0-1.688-.397-3.09-1.19-4.2-.794-1.109-1.976-1.659-3.563-1.659-1.594 0-2.784.55-3.576 1.66-.794 1.108-1.19 2.51-1.19 4.199 0 1.71.397 3.127 1.197 4.237.793 1.107 1.983 1.667 3.569 1.667h.001Zm0 5.55c-2.643 0-4.928-.477-6.853-1.438-1.924-.954-3.385-2.299-4.391-4.03-.999-1.733-1.499-3.723-1.499-5.983 0-3.427 1.131-6.18 3.394-8.273 2.255-2.093 5.375-3.136 9.35-3.136 2.622 0 4.897.477 6.822 1.431 1.917.955 3.386 2.3 4.391 4.024 1.007 1.733 1.513 3.715 1.513 5.954 0 2.262-.5 4.251-1.498 5.983-1.007 1.733-2.468 3.076-4.392 4.03-1.924.963-4.208 1.438-6.837 1.438Zm15.762-.793V36.104h-2.775v-5.55h2.775v-5.86h7.711v5.86h3.774v5.55h-3.774V51.83h-7.71ZM79.63 30.555h7.71V51.83h-7.71V30.555Zm22.885 16.518c1.579 0 2.762-.558 3.555-1.667.802-1.107 1.197-2.526 1.197-4.236 0-1.688-.397-3.091-1.19-4.2-.792-1.108-1.976-1.659-3.563-1.659-1.594 0-2.784.55-3.576 1.659-.793 1.109-1.19 2.51-1.19 4.2 0 1.71.397 3.127 1.197 4.236.793 1.108 1.983 1.667 3.569 1.667h.001Zm0 5.55c-2.643 0-4.927-.476-6.852-1.437-1.924-.955-3.386-2.3-4.392-4.03-.998-1.734-1.498-3.723-1.498-5.983 0-3.428 1.132-6.181 3.393-8.274 2.255-2.092 5.376-3.135 9.348-3.135 2.622 0 4.898.477 6.824 1.431 1.916.955 3.385 2.3 4.391 4.024 1.007 1.733 1.513 3.715 1.513 5.954 0 2.262-.5 4.251-1.498 5.982-1.007 1.733-2.468 3.076-4.392 4.03-1.924.963-4.208 1.439-6.838 1.439h.001Zm22.857-19.6c1.668-2.173 3.966-3.26 6.919-3.26 3.121 0 5.171 1 6.132 2.99.963 1.997 1.447 4.214 1.447 6.658v12.421h-7.711V40.11c0-2.665-.911-4.002-2.732-4.002-1.168 0-2.137.47-2.902 1.401-.77.94-1.153 2.217-1.153 3.839V51.83h-7.711V30.557h7.711v2.466Zm16.607 15.593c0-.684.176-1.328.521-1.946a4.067 4.067 0 0 1 1.441-1.49 3.81 3.81 0 0 1 2.048-.572c1.19 0 2.159.403 2.901 1.219.742.814 1.11 1.74 1.11 2.79 0 1.026-.368 1.96-1.11 2.774-.733.822-1.703 1.233-2.901 1.233-1.145 0-2.1-.403-2.864-1.219-.765-.816-1.146-1.748-1.146-2.789ZM7.714 29.923v2.88c1.829-2.027 4.061-3.04 6.698-3.04 3.048 0 5.177 1.087 6.39 3.26.926-1.167 1.916-2.004 2.974-2.503 1.05-.507 2.306-.756 3.761-.756 1.865 0 3.342.41 4.436 1.233 1.093.822 1.843 1.806 2.26 2.966.42 1.16.625 2.312.625 3.465V51.83h-7.711V39.409c0-2.202-.808-3.303-2.43-3.303-.897 0-1.69.345-2.388 1.041-.696.697-1.043 1.785-1.043 3.275V51.83h-7.71V39.409c0-2.202-.809-3.303-2.417-3.303-.903 0-1.703.345-2.401 1.035-.699.696-1.044 1.784-1.044 3.28v11.41H.004V32.445l7.71-2.522Zm48.314-12.52c1.579 0 2.76-.558 3.554-1.667.8-1.109 1.199-2.524 1.199-4.237 0-1.687-.397-3.09-1.19-4.2-.794-1.108-1.976-1.658-3.563-1.658-1.594 0-2.784.55-3.578 1.659-.793 1.107-1.19 2.51-1.19 4.2 0 1.71.397 3.127 1.197 4.236.793 1.108 1.984 1.667 3.569 1.667h.002Zm-.35 5.457c-2.644 0-4.58-.383-6.503-1.346-1.924-.954-3.386-2.297-4.392-4.03-.998-1.733-1.498-3.723-1.498-5.983 0-3.427 1.13-6.18 3.393-8.273 2.255-2.093 5.376-3.134 9.35-3.134 2.622 0 4.898.477 6.822 1.431 1.916.954 3.385 2.299 4.392 4.024 1.006 1.733 1.512 3.714 1.512 5.954 0 2.262-.5 4.25-1.498 5.982-1.006 1.733-2.468 3.076-4.392 4.03-1.924.963-4.557 1.347-7.186 1.347v-.002ZM7.413.793v2.59C8.41 2.145 9.454 1.27 10.54.765 11.636.258 12.928 0 14.42 0c1.579 0 2.988.301 4.244.896 1.249.602 2.292 1.417 3.121 2.452.823 1.035 1.455 2.254 1.887 3.64.434 1.389.654 2.864.654 4.42 0 1.946-.375 3.795-1.117 5.55-.75 1.754-1.872 3.18-3.378 4.266-1.499 1.095-3.305 1.638-5.413 1.638-2.689 0-4.92-.983-6.706-2.958v5.942L0 28.367V.794h7.412Zm5.377 15.725c1.453 0 2.591-.485 3.408-1.454.816-.969 1.219-2.188 1.219-3.656 0-1.453-.403-2.665-1.22-3.626-.816-.963-1.953-1.438-3.407-1.438-1.58 0-2.747.514-3.497 1.55-.75 1.034-1.124 2.201-1.124 3.515 0 1.337.374 2.518 1.124 3.553.757 1.035 1.916 1.556 3.497 1.556Z" fill="#fff"/></svg><svg fill="none" viewBox="0 0 51 38" id="iviLogo" xmlns="http://www.w3.org/2000/svg"><path d="M26.671 21.089c-1.245 10.85-3.836 12.909-14.686 11.664C1.136 31.508-.922 28.916.32 18.067 1.566 7.217 4.158 5.159 15.007 6.404c10.85 1.244 12.909 3.836 11.664 14.686v-.001Z" fill="url(#ea)"/><path d="M17.951 13.05c-1.094 0-1.97.437-2.844 1.726l-3.404 5.13.316-3.988c.097-1.507-.85-2.869-2.529-2.869-1.556 0-2.528 1.046-2.625 2.383l-.535 7.342c-.122 1.824.826 2.869 2.333 2.869 1.508 0 2.456-1.094 3.161-2.091l3.282-4.984-.292 4.206c-.145 1.702.778 2.868 2.456 2.868 1.556 0 2.577-.923 2.674-2.309l.535-7.415c.122-1.459-.583-2.869-2.528-2.869Z" fill="url(#eb)"/><path d="m12.014 15.922-.316 3.987.121 3.647c-.705.997-1.654 2.09-3.16 2.09-1.508 0-2.456-1.044-2.334-2.868l.534-7.342c.098-1.338 1.07-2.383 2.626-2.383 1.678 0 2.626 1.361 2.529 2.869Z" fill="url(#ec)"/><path d="M12.024 15.71c0-1.39-.899-2.661-2.553-2.661-1.653 0-2.612 1.24-2.612 2.577 0 1.434 1.076 2.552 2.583 2.552 1.507 0 2.582-1.034 2.582-2.468Z" fill="#fff"/><defs><linearGradient id="ea" x1="29.602" y1="49.296" x2=".014" y2="5.037" gradientUnits="userSpaceOnUse"><stop offset=".798" stop-color="#F30745"/><stop offset=".977" stop-color="#FFBCCE"/></linearGradient><linearGradient id="eb" x1="12.846" y1="19.284" x2="7.587" y2="18.616" gradientUnits="userSpaceOnUse"><stop offset=".15" stop-color="#fff"/><stop offset=".62" stop-color="#fff" stop-opacity=".6"/><stop offset="1" stop-color="#fff" stop-opacity="0"/></linearGradient><linearGradient id="ec" x1="7.996" y1="25.551" x2="9.423" y2="17.77" gradientUnits="userSpaceOnUse"><stop offset=".15" stop-color="#fff"/><stop offset=".62" stop-color="#fff" stop-opacity=".6"/><stop offset="1" stop-color="#fff" stop-opacity="0"/></linearGradient></defs></svg><svg viewBox="0 0 24 24" fill="none" id="key-svgrepo-com" xmlns="http://www.w3.org/2000/svg"><path fill-rule="evenodd" clip-rule="evenodd" d="M22 8.293c0 3.476-2.83 6.294-6.32 6.294-.636 0-2.086-.146-2.791-.732l-.882.878c-.519.517-.379.669-.148.919.096.105.208.226.295.399 0 0 .735 1.024 0 2.049-.441.585-1.676 1.404-3.086 0l-.294.292s.881 1.025.147 2.05c-.441.585-1.617 1.17-2.646.146l-1.028 1.024c-.706.703-1.568.293-1.91 0l-.883-.878c-.823-.82-.343-1.708 0-2.05l7.642-7.61s-.735-1.17-.735-2.78c0-3.476 2.83-6.294 6.32-6.294S22 4.818 22 8.293Zm-6.319 2.196a2.2 2.2 0 0 0 2.204-2.195 2.2 2.2 0 0 0-2.204-2.196 2.2 2.2 0 0 0-2.204 2.196 2.2 2.2 0 0 0 2.204 2.195Z" fill="#1C274C"/></svg><svg fill="none" viewBox="0 0 1626 1076" id="ppp" xmlns="http://www.w3.org/2000/svg"><g opacity=".6" filter="url(#pa)"><path fill-rule="evenodd" clip-rule="evenodd" d="M215.122 303.113c39.525 0 75.306 16.017 101.2 41.895 25.913 25.878 41.921 61.636 41.921 101.136 0 39.501-16.027 75.259-41.921 101.137s-61.675 41.895-101.2 41.895c-39.526 0-75.307-16.017-101.201-41.895C88.027 521.403 72 485.645 72 446.144c0-39.5 16.027-75.258 41.921-101.136s61.675-41.895 101.201-41.895Zm273.942-133.094V1330l230.652-58.42V954.828H825.08c71.789 0 134.509-9.234 188.79-25.688 108.19-32.793 198.92-100.053 247.15-204.077 46.64-100.567 46.64-224.731 0-325.297-48.23-104.044-138.96-171.303-247.15-204.078C959.589 179.234 896.869 170 825.08 170H489.064v.019Zm230.652 560.326h111.391c40.818 0 75.515-4.294 104.717-11.932 50.192-13.129 96.046-39.197 119.376-87.362 19.24-39.71 20.08-91.275 2.81-131.878-20.62-48.564-64.047-76.057-113.25-90.553-29.754-8.759-65.496-13.908-107.95-14.307v.171H719.697v335.842l.019.019Zm-504.594 118.16c39.525 0 75.306 16.017 101.2 41.895 25.913 25.878 41.921 61.635 41.921 101.136 0 39.504-16.027 75.254-41.921 101.134-25.894 25.88-61.675 41.9-101.2 41.9-39.526 0-75.307-16.02-101.201-41.9C88.027 1066.79 72 1031.04 72 991.536c0-39.501 16.027-75.258 41.921-101.136s61.675-41.895 101.201-41.895Z" fill="#ED0644"/></g><defs><filter id="pa" x="-98" y="0" width="1724" height="1660" filterUnits="userSpaceOnUse" color-interpolation-filters="sRGB"><feFlood flood-opacity="0" result="BackgroundImageFix"/><feColorMatrix in="SourceAlpha" values="0 0 0 0 0 0 0 0 0 0 0 0 0 0 0 0 0 0 127 0" result="hardAlpha"/><feOffset dx="80" dy="80"/><feGaussianBlur stdDeviation="125"/><feComposite in2="hardAlpha" operator="out"/><feColorMatrix values="0 0 0 0 0 0 0 0 0 0 0 0 0 0 0 0 0 0 0.2 0"/><feBlend in2="BackgroundImageFix" result="effect1_dropShadow_74_322"/><feBlend in="SourceGraphic" in2="effect1_dropShadow_74_322" result="shape"/></filter></defs></svg><svg fill="none" viewBox="0 0 1080 235" id="title" xmlns="http://www.w3.org/2000/svg"><path d="M897.009 234.822a65.355 65.355 0 0 1-23.171-3.854 44.19 44.19 0 0 1-16.929-11.232 48.484 48.484 0 0 1-10.378-18.119 78.999 78.999 0 0 1-3.522-24.515V57.728a79.025 79.025 0 0 1 3.526-24.515 48.494 48.494 0 0 1 10.374-18.119 44.21 44.21 0 0 1 16.93-11.231 71.583 71.583 0 0 1 46.341 0 44.229 44.229 0 0 1 16.929 11.232 48.465 48.465 0 0 1 10.377 18.118 79.086 79.086 0 0 1 3.523 24.515v119.374a79.092 79.092 0 0 1-3.527 24.515 48.466 48.466 0 0 1-10.373 18.119 44.217 44.217 0 0 1-16.925 11.232 65.35 65.35 0 0 1-23.175 3.854Zm1.5-200.548a22.318 22.318 0 0 0-7.682 1.223A14.38 14.38 0 0 0 885 39.41a17.943 17.943 0 0 0-3.7 6.971 37.078 37.078 0 0 0-1.291 10.397v123.29a37.079 37.079 0 0 0 1.293 10.397 17.95 17.95 0 0 0 3.7 6.971 14.378 14.378 0 0 0 5.827 3.914 24.754 24.754 0 0 0 15.366 0 14.365 14.365 0 0 0 5.827-3.914 17.938 17.938 0 0 0 3.7-6.971 37.037 37.037 0 0 0 1.287-10.397V56.778c.064-3.51-.372-7.01-1.293-10.396a17.93 17.93 0 0 0-3.7-6.97 14.366 14.366 0 0 0-5.827-3.914 22.318 22.318 0 0 0-7.68-1.224Zm-722.5 200.548a65.35 65.35 0 0 1-23.17-3.854 44.193 44.193 0 0 1-16.93-11.232 48.484 48.484 0 0 1-10.378-18.119 78.999 78.999 0 0 1-3.522-24.515V57.728a78.966 78.966 0 0 1 3.526-24.515 48.486 48.486 0 0 1 10.374-18.117 44.193 44.193 0 0 1 16.93-11.233 65.427 65.427 0 0 1 23.17-3.854 65.395 65.395 0 0 1 23.171 3.854 44.21 44.21 0 0 1 16.929 11.232 48.447 48.447 0 0 1 10.378 18.12 78.928 78.928 0 0 1 3.522 24.513v119.374a78.91 78.91 0 0 1-3.526 24.515 48.482 48.482 0 0 1-10.374 18.119 44.186 44.186 0 0 1-16.925 11.232 65.35 65.35 0 0 1-23.175 3.854Zm-1.5-200.548a22.295 22.295 0 0 0-7.683 1.222 14.408 14.408 0 0 0-5.827 3.917 17.961 17.961 0 0 0-3.7 6.972 37.087 37.087 0 0 0-1.29 10.393v123.29a37.079 37.079 0 0 0 1.293 10.397 17.95 17.95 0 0 0 3.7 6.971 14.405 14.405 0 0 0 5.827 3.914 24.757 24.757 0 0 0 15.367 0 14.392 14.392 0 0 0 5.827-3.914 17.998 17.998 0 0 0 3.7-6.971 36.963 36.963 0 0 0 1.286-10.397V56.778a36.962 36.962 0 0 0-1.293-10.396 17.968 17.968 0 0 0-3.7-6.972 14.387 14.387 0 0 0-5.827-3.913 22.286 22.286 0 0 0-7.68-1.223Zm-121 200.548a65.273 65.273 0 0 1-23.223-3.854 43.163 43.163 0 0 1-16.739-11.232A48.204 48.204 0 0 1 3.41 201.617a81.56 81.56 0 0 1-3.4-24.515V57.728a81.563 81.563 0 0 1 3.4-24.515 48.223 48.223 0 0 1 10.138-18.117 43.172 43.172 0 0 1 16.74-11.233A65.329 65.329 0 0 1 53.508.009a65.306 65.306 0 0 1 23.222 3.854 43.124 43.124 0 0 1 16.74 11.232 48.22 48.22 0 0 1 10.138 18.118 81.57 81.57 0 0 1 3.4 24.515v22.299H73.082v-24.59c0-7.86-1.687-13.736-5.016-17.463-3.06-3.426-7.629-5.165-13.578-5.165S43.97 34.543 40.91 37.97c-3.329 3.727-5.016 9.606-5.016 17.467v123.957c0 7.947 1.641 13.605 5.016 17.301 3.078 3.365 7.52 5.001 13.58 5.001 6.058 0 10.5-1.635 13.577-5.001 3.375-3.695 5.016-9.353 5.016-17.301v-42.301h-16.31v-32.796h50.237v72.805a81.543 81.543 0 0 1-3.4 24.515 48.227 48.227 0 0 1-10.138 18.119 43.106 43.106 0 0 1-16.74 11.232 65.268 65.268 0 0 1-23.222 3.854Zm350.5-3.023h-36.15v-97.612h-40.35v97.612h-35.5V4.04h35.5v97.611h40.35V4.041h36.15v227.758Zm136 0H503.97l-6.169-41.319H453.97l-6.169 41.319h-32.792L451.373 4.04h52.273L540.009 231.8Zm-64-188.455-17 115.895h34l-17-115.895Zm528.701 188.455h-35.701V4.04h53.881c4.31-.021 8.62.248 12.9.806 3.72.488 7.39 1.302 10.98 2.434a44.892 44.892 0 0 1 9.12 4.067 35.864 35.864 0 0 1 12.92 13.06 44.732 44.732 0 0 1 3.92 9.008 62.711 62.711 0 0 1 2.31 10.67c.52 4.093.77 8.215.75 12.34V74.32c0 23.69-7.64 38.799-23.37 46.203 4.19 1.71 8 4.22 11.24 7.392a35.624 35.624 0 0 1 7.3 10.747c3.47 7.72 5.16 17.645 5.16 30.341v35.139c0 10.784.28 19.081 3.89 27.656h-36.35l-.1-.296c-1.9-5.701-3.15-9.468-3.15-27.685v-35.791c.09-4.521-.37-9.037-1.36-13.446a22.138 22.138 0 0 0-4.23-8.964 16.349 16.349 0 0 0-7.28-4.997 30.743 30.743 0 0 0-10.5-1.551h-12.33v92.731Zm.3-195.51v70.545h13.81c7.03 0 12.11-1.713 15.53-5.25 3.81-3.93 5.66-10.16 5.66-19.03v-22.64c0-8.286-1.4-14.163-4.3-17.964-2.9-3.802-7.37-5.66-13.68-5.66h-17.02ZM585.709 231.8h-35.7V4.04h53.878c4.313-.02 8.623.25 12.9.806a63.79 63.79 0 0 1 10.979 2.434 45.031 45.031 0 0 1 9.123 4.067 36.536 36.536 0 0 1 7.328 5.705 36.34 36.34 0 0 1 5.593 7.356 44.654 44.654 0 0 1 3.92 9.008 63.01 63.01 0 0 1 2.307 10.67c.519 4.093.772 8.215.756 12.34V74.32c0 23.69-7.644 38.799-23.368 46.203 8.317 3.338 14.984 9.86 18.541 18.14 3.467 7.727 5.153 17.652 5.153 30.341v35.139c0 10.792.279 19.093 3.893 27.656h-36.349l-.1-.302c-1.9-5.684-3.147-9.438-3.147-27.684v-35.787a56.18 56.18 0 0 0-1.369-13.446 22.046 22.046 0 0 0-4.229-8.964c-3.707-4.467-9.354-6.55-17.771-6.55h-12.338v92.733Zm.3-195.51v70.545h13.808c7.033 0 12.114-1.713 15.533-5.25 3.808-3.934 5.659-10.16 5.659-19.03v-22.64c0-8.285-1.4-14.162-4.295-17.965-2.895-3.803-7.371-5.66-13.687-5.66h-17.018ZM731.121 231.8h-56.112V4.04h56.112a67.677 67.677 0 0 1 23.229 3.67 41.74 41.74 0 0 1 16.518 10.809 45.863 45.863 0 0 1 9.866 17.636 81.23 81.23 0 0 1 3.275 24.174V175.51a81.268 81.268 0 0 1-3.275 24.169 45.75 45.75 0 0 1-9.866 17.641 41.733 41.733 0 0 1-16.518 10.808 67.656 67.656 0 0 1-23.229 3.671Zm-19.112-195.51V199.55h19.966c5.952 0 10.284-1.629 13.244-4.98a17.465 17.465 0 0 0 3.557-6.867 38.315 38.315 0 0 0 1.233-10.357V58.493a38.315 38.315 0 0 0-1.233-10.357 17.465 17.465 0 0 0-3.557-6.867c-2.96-3.351-7.291-4.98-13.244-4.98h-19.966Z" fill="#fff"/></svg><svg fill="none" viewBox="0 0 814 235" id="title1" xmlns="http://www.w3.org/2000/svg"><path d="M476.009 234.823a65.354 65.354 0 0 1-23.171-3.853 44.23 44.23 0 0 1-16.929-11.233 48.48 48.48 0 0 1-10.378-18.12 79.041 79.041 0 0 1-3.522-24.513V57.729a79.026 79.026 0 0 1 3.526-24.514 48.466 48.466 0 0 1 10.374-18.12 44.206 44.206 0 0 1 16.925-11.233 71.58 71.58 0 0 1 46.341 0 44.22 44.22 0 0 1 16.934 11.233 48.48 48.48 0 0 1 10.377 18.119 79.032 79.032 0 0 1 3.523 24.515v119.375a79.046 79.046 0 0 1-3.527 24.513 48.464 48.464 0 0 1-10.377 18.12 44.208 44.208 0 0 1-16.925 11.233 65.354 65.354 0 0 1-23.171 3.853Zm-.5-202.564a22.256 22.256 0 0 0-7.683 1.223 14.373 14.373 0 0 0-5.827 3.914 17.945 17.945 0 0 0-3.7 6.971 37.153 37.153 0 0 0-1.29 10.397v123.289a37.116 37.116 0 0 0 1.293 10.397 17.938 17.938 0 0 0 3.7 6.971 14.382 14.382 0 0 0 5.827 3.914 24.757 24.757 0 0 0 15.367 0 14.382 14.382 0 0 0 5.827-3.914 17.965 17.965 0 0 0 3.7-6.971 37.11 37.11 0 0 0 1.286-10.397V54.764a37.154 37.154 0 0 0-1.293-10.397 17.962 17.962 0 0 0-3.7-6.97 14.372 14.372 0 0 0-5.827-3.915 22.255 22.255 0 0 0-7.68-1.223Zm-299.5 202.564a65.3 65.3 0 0 1-23.17-3.853 44.225 44.225 0 0 1-16.93-11.233 48.48 48.48 0 0 1-10.378-18.12 79.012 79.012 0 0 1-3.522-24.513V57.729a79.026 79.026 0 0 1 3.526-24.514 48.48 48.48 0 0 1 10.374-18.12 44.206 44.206 0 0 1 16.925-11.233A65.316 65.316 0 0 1 176.009.01a65.315 65.315 0 0 1 23.171 3.853 44.223 44.223 0 0 1 16.929 11.232 48.482 48.482 0 0 1 10.378 18.119 79.031 79.031 0 0 1 3.522 24.515v119.375a79.015 79.015 0 0 1-3.526 24.513 48.458 48.458 0 0 1-10.378 18.12 44.208 44.208 0 0 1-16.925 11.233 65.31 65.31 0 0 1-23.171 3.853Zm-1.5-202.564a22.256 22.256 0 0 0-7.683 1.223 14.372 14.372 0 0 0-5.827 3.914 17.962 17.962 0 0 0-3.7 6.971 37.078 37.078 0 0 0-1.29 10.397v123.289a37.079 37.079 0 0 0 1.293 10.397 17.965 17.965 0 0 0 3.7 6.971 14.382 14.382 0 0 0 5.827 3.914 24.757 24.757 0 0 0 15.367 0 14.382 14.382 0 0 0 5.827-3.914 17.951 17.951 0 0 0 3.7-6.971 37.11 37.11 0 0 0 1.286-10.397V54.764a37.154 37.154 0 0 0-1.293-10.397 17.945 17.945 0 0 0-3.7-6.97 14.372 14.372 0 0 0-5.827-3.915 22.255 22.255 0 0 0-7.68-1.223Zm-121 202.564a65.205 65.205 0 0 1-23.223-3.853 43.165 43.165 0 0 1-16.739-11.233 48.229 48.229 0 0 1-10.138-18.12 81.447 81.447 0 0 1-3.4-24.513V57.729a81.462 81.462 0 0 1 3.4-24.514 48.205 48.205 0 0 1 10.133-18.119A43.173 43.173 0 0 1 30.281 3.863 65.232 65.232 0 0 1 53.509.01a65.24 65.24 0 0 1 23.224 3.853 43.173 43.173 0 0 1 16.739 11.233 48.201 48.201 0 0 1 10.137 18.119 81.471 81.471 0 0 1 3.4 24.514v22.298H73.082v-24.59a37.41 37.41 0 0 0-1.3-10.453 18.047 18.047 0 0 0-3.716-7.01 14.44 14.44 0 0 0-5.856-3.93 22.31 22.31 0 0 0-7.722-1.23 22.31 22.31 0 0 0-7.722 1.23 14.447 14.447 0 0 0-5.857 3.93 18.067 18.067 0 0 0-3.716 7.01 37.418 37.418 0 0 0-1.3 10.454v123.957a36.903 36.903 0 0 0 1.3 10.402 17.491 17.491 0 0 0 3.716 6.901 14.306 14.306 0 0 0 5.857 3.823c2.49.827 5.1 1.225 7.722 1.178a23.178 23.178 0 0 0 7.722-1.178 14.3 14.3 0 0 0 5.856-3.823 17.488 17.488 0 0 0 3.716-6.897 36.895 36.895 0 0 0 1.3-10.406v-42.307H56.771v-32.789h50.238v72.805a81.43 81.43 0 0 1-3.4 24.513 48.233 48.233 0 0 1-10.133 18.12 43.196 43.196 0 0 1-16.739 11.233 65.21 65.21 0 0 1-23.228 3.853Zm643.5-4.031h-33.542V67.456l-24.51 163.336h-33.541L578.97 69.732v161.06h-30.961V3.032h49.344c.031.374 3.393 40.48 8.345 80.855 2.88 23.482 5.7 42.179 8.39 55.587 3.362 16.767 6.52 25.268 9.389 25.268 2.869 0 5.925-8.501 9.085-25.268 2.528-13.412 5.127-32.114 7.726-55.587 4.461-40.303 7.349-80.453 7.377-80.854h49.344v227.759Zm-293 0h-36.15v-97.611h-40.35v97.611h-35.5V3.032h35.5v97.612h40.35V3.033h36.15v227.759Zm409 0h-98V3.032h98V35.57h-62.067v63.447h49.327v32.537h-49.327v66.701h62.067v32.537Z" fill="#fff"/></svg></svg>