<svg width="28" height="28" viewBox="0 0 28 28" fill="none" xmlns="http://www.w3.org/2000/svg">
<rect width="8.79564" height="2.19891" transform="matrix(-0.711314 0.702874 0.711314 0.702874 6.25647 20.2722)" fill="white"/>
<path fill-rule="evenodd" clip-rule="evenodd" d="M15.3286 23.3112C9.54218 23.3112 5.06477 18.549 5.06477 12.9507C5.06477 7.35228 9.54218 2.59013 15.3286 2.59013C21.115 2.59013 25.5924 7.35228 25.5924 12.9507C25.5924 18.549 21.115 23.3112 15.3286 23.3112ZM15.3286 25.9013C8.33038 25.9013 2.6572 20.1031 2.6572 12.9507C2.6572 5.79821 8.33038 0 15.3286 0C22.3268 0 28 5.79821 28 12.9507C28 20.1031 22.3268 25.9013 15.3286 25.9013Z" fill="white"/>
</svg>
