<svg width="191" height="31" viewBox="0 0 191 31" fill="none" xmlns="http://www.w3.org/2000/svg">
<path d="M43 24.9999V3.9999H48.55V11.7999H56.65V3.9999H62.2V24.9999H56.65V16.8999H48.55V24.9999H43Z" fill="white"/>
<path d="M65.4859 5.1999C65.4859 4.4799 65.7559 3.8799 66.2959 3.3999C66.8359 2.8999 67.5159 2.6499 68.3359 2.6499C69.1559 2.6499 69.8359 2.8999 70.3759 3.3999C70.9159 3.8799 71.1859 4.4799 71.1859 5.1999C71.1859 5.8999 70.9159 6.4999 70.3759 6.9999C69.8359 7.4999 69.1559 7.7499 68.3359 7.7499C67.5159 7.7499 66.8359 7.4999 66.2959 6.9999C65.7559 6.4999 65.4859 5.8999 65.4859 5.1999ZM65.7859 24.9999V9.3999H70.8859V24.9999H65.7859Z" fill="white"/>
<path d="M75.4541 22.6299C74.1141 21.1499 73.4441 19.2399 73.4441 16.8999C73.4441 14.5599 74.1141 12.6499 75.4541 11.1699C76.7941 9.6899 78.4241 8.9499 80.3441 8.9499C81.7241 8.9499 82.9141 9.3499 83.9141 10.1499C84.3741 10.5099 84.7341 10.9099 84.9941 11.3499H85.2941V9.3999H90.3941V30.6999H75.5441V26.6499H85.2941V22.5999H84.9941C84.7141 23.0399 84.3541 23.4199 83.9141 23.7399C82.9341 24.4799 81.7441 24.8499 80.3441 24.8499C78.4241 24.8499 76.7941 24.1099 75.4541 22.6299ZM79.5941 14.2599C78.9941 14.8999 78.6941 15.7799 78.6941 16.8999C78.6941 18.0199 78.9941 18.8999 79.5941 19.5399C80.1941 20.1799 80.9941 20.4999 81.9941 20.4999C82.9941 20.4999 83.7941 20.1799 84.3941 19.5399C84.9941 18.8999 85.2941 18.0199 85.2941 16.8999C85.2941 15.7799 84.9941 14.8999 84.3941 14.2599C83.7941 13.6199 82.9941 13.2999 81.9941 13.2999C80.9941 13.2999 80.1941 13.6199 79.5941 14.2599Z" fill="white"/>
<path d="M93.3801 24.9999V3.9999H98.4801V11.4999H98.7801C99.0601 11.0199 99.4201 10.5999 99.8601 10.2399C100.88 9.3799 102.07 8.9499 103.43 8.9499C105.27 8.9499 106.7 9.5099 107.72 10.6299C108.76 11.7299 109.28 13.3199 109.28 15.3999V24.9999H104.18V16.1499C104.18 15.2499 103.94 14.5499 103.46 14.0499C102.98 13.5499 102.32 13.2999 101.48 13.2999C100.62 13.2999 99.9001 13.6199 99.3201 14.2599C98.7601 14.8799 98.4801 15.7099 98.4801 16.7499V24.9999H93.3801Z" fill="white"/>
<path d="M120.538 30.6999V9.3999H125.638V11.4999H125.938C126.218 11.0399 126.598 10.6199 127.078 10.2399C128.178 9.3799 129.348 8.9499 130.588 8.9499C132.508 8.9499 134.138 9.7099 135.478 11.2299C136.818 12.7299 137.488 14.7199 137.488 17.1999C137.488 19.6799 136.818 21.6799 135.478 23.1999C134.138 24.6999 132.508 25.4499 130.588 25.4499C129.328 25.4499 128.158 25.0299 127.078 24.1899C126.598 23.8099 126.218 23.3799 125.938 22.8999H125.638V30.6999H120.538ZM126.538 14.3199C125.938 14.9999 125.638 15.9599 125.638 17.1999C125.638 18.4399 125.938 19.3999 126.538 20.0799C127.138 20.7599 127.938 21.0999 128.938 21.0999C129.938 21.0999 130.738 20.7599 131.338 20.0799C131.938 19.3999 132.238 18.4399 132.238 17.1999C132.238 15.9599 131.938 14.9999 131.338 14.3199C130.738 13.6399 129.938 13.2999 128.938 13.2999C127.938 13.2999 127.138 13.6399 126.538 14.3199Z" fill="white"/>
<path d="M141.284 23.1999C139.944 21.6799 139.274 19.6799 139.274 17.1999C139.274 14.7199 139.944 12.7299 141.284 11.2299C142.624 9.7099 144.254 8.9499 146.174 8.9499C147.414 8.9499 148.584 9.3799 149.684 10.2399C150.144 10.6199 150.524 11.0399 150.824 11.4999H151.124V9.3999H156.224V24.9999H151.124V22.8999H150.824C150.544 23.3799 150.164 23.8099 149.684 24.1899C148.604 25.0299 147.434 25.4499 146.174 25.4499C144.254 25.4499 142.624 24.6999 141.284 23.1999ZM145.424 14.3199C144.824 14.9999 144.524 15.9599 144.524 17.1999C144.524 18.4399 144.824 19.3999 145.424 20.0799C146.024 20.7599 146.824 21.0999 147.824 21.0999C148.824 21.0999 149.624 20.7599 150.224 20.0799C150.824 19.3999 151.124 18.4399 151.124 17.1999C151.124 15.9599 150.824 14.9999 150.224 14.3199C149.624 13.6399 148.824 13.2999 147.824 13.2999C146.824 13.2999 146.024 13.6399 145.424 14.3199Z" fill="white"/>
<path d="M158.31 19.8999H163.41C163.49 20.1999 163.66 20.4799 163.92 20.7399C164.46 21.2799 165.24 21.5499 166.26 21.5499C167.66 21.5499 168.36 21.1999 168.36 20.4999C168.36 20.1799 168.16 19.9299 167.76 19.7499C167.36 19.5499 166.76 19.3499 165.96 19.1499C165.3 18.9899 164.87 18.8899 164.67 18.8499C164.47 18.8099 164.05 18.6999 163.41 18.5199C162.77 18.3199 162.31 18.1499 162.03 18.0099C161.77 17.8499 161.4 17.6299 160.92 17.3499C160.46 17.0499 160.12 16.7499 159.9 16.4499C159.7 16.1299 159.51 15.7399 159.33 15.2799C159.15 14.7999 159.06 14.2899 159.06 13.7499C159.06 12.4299 159.65 11.2999 160.83 10.3599C162.01 9.4199 163.67 8.9499 165.81 8.9499C168.49 8.9499 170.61 9.8299 172.17 11.5899C172.79 12.3499 173.22 13.2199 173.46 14.1999H168.51C168.39 13.8799 168.25 13.6299 168.09 13.4499C167.63 12.9499 166.97 12.6999 166.11 12.6999C164.91 12.6999 164.31 13.0499 164.31 13.7499C164.31 14.0899 164.51 14.3499 164.91 14.5299C165.31 14.7099 165.92 14.8799 166.74 15.0399C168.8 15.5199 170.19 15.9399 170.91 16.2999C172.71 17.1799 173.61 18.5299 173.61 20.3499C173.61 21.7899 172.97 22.9999 171.69 23.9799C170.43 24.9599 168.62 25.4499 166.26 25.4499C163.36 25.4499 161.15 24.5299 159.63 22.6899C158.95 21.8699 158.51 20.9399 158.31 19.8999Z" fill="white"/>
<path d="M174.951 19.8999H180.051C180.131 20.1999 180.301 20.4799 180.561 20.7399C181.101 21.2799 181.881 21.5499 182.901 21.5499C184.301 21.5499 185.001 21.1999 185.001 20.4999C185.001 20.1799 184.801 19.9299 184.401 19.7499C184.001 19.5499 183.401 19.3499 182.601 19.1499C181.941 18.9899 181.511 18.8899 181.311 18.8499C181.111 18.8099 180.691 18.6999 180.051 18.5199C179.411 18.3199 178.951 18.1499 178.671 18.0099C178.411 17.8499 178.041 17.6299 177.561 17.3499C177.101 17.0499 176.761 16.7499 176.541 16.4499C176.341 16.1299 176.151 15.7399 175.971 15.2799C175.791 14.7999 175.701 14.2899 175.701 13.7499C175.701 12.4299 176.291 11.2999 177.471 10.3599C178.651 9.4199 180.311 8.9499 182.451 8.9499C185.131 8.9499 187.251 9.8299 188.811 11.5899C189.431 12.3499 189.861 13.2199 190.101 14.1999H185.151C185.031 13.8799 184.891 13.6299 184.731 13.4499C184.271 12.9499 183.611 12.6999 182.751 12.6999C181.551 12.6999 180.951 13.0499 180.951 13.7499C180.951 14.0899 181.151 14.3499 181.551 14.5299C181.951 14.7099 182.561 14.8799 183.381 15.0399C185.441 15.5199 186.831 15.9399 187.551 16.2999C189.351 17.1799 190.251 18.5299 190.251 20.3499C190.251 21.7899 189.611 22.9999 188.331 23.9799C187.071 24.9599 185.261 25.4499 182.901 25.4499C180.001 25.4499 177.791 24.5299 176.271 22.6899C175.591 21.8699 175.151 20.9399 174.951 19.8999Z" fill="white"/>
<path fill-rule="evenodd" clip-rule="evenodd" d="M6 6V24H24L6 6ZM0 0V30H30V0H0Z" fill="#FF6E30"/>
</svg>
