<svg width="275" height="39" viewBox="0 0 275 39" fill="none" xmlns="http://www.w3.org/2000/svg">
<path d="M155.418 19.93H170.418V22.39H155.418V19.93Z" fill="white"/>
<path d="M189.389 20.65H185.489V29.5H181.649V8.5H185.489V17.29H189.509L195.539 8.5H199.679L192.509 18.67L199.949 29.5H195.539L189.389 20.65Z" fill="white"/>
<path d="M217.091 13.48L209.591 30.79C208.891 32.53 208.041 33.75 207.041 34.45C206.041 35.17 204.831 35.53 203.411 35.53C202.611 35.53 201.821 35.4 201.041 35.14C200.261 34.88 199.621 34.52 199.121 34.06L200.621 31.3C200.981 31.64 201.401 31.91 201.881 32.11C202.381 32.31 202.881 32.41 203.381 32.41C204.041 32.41 204.581 32.24 205.001 31.9C205.441 31.56 205.841 30.99 206.201 30.19L206.471 29.56L199.481 13.48H203.381L208.421 25.33L213.491 13.48H217.091Z" fill="white"/>
<path d="M228.808 29.5L224.698 23.95L220.558 29.5H216.418L222.658 21.37L216.688 13.48H220.858L224.788 18.73L228.718 13.48H232.768L226.768 21.31L233.038 29.5H228.808Z" fill="white"/>
<path d="M235.721 13.48H239.471V19.99H247.541V13.48H251.291V29.5H247.541V23.17H239.471V29.5H235.721V13.48Z" fill="white"/>
<path d="M256.317 13.48H260.067V24.04L268.917 13.48H272.337V29.5H268.587V18.94L259.767 29.5H256.317V13.48Z" fill="white"/>
<path d="M68.86 24.64H58.36L56.29 29.5H52.27L61.72 8.5H65.56L75.04 29.5H70.96L68.86 24.64ZM67.57 21.58L63.61 12.4L59.68 21.58H67.57Z" fill="#B17955"/>
<path d="M77.8403 13.48H81.5903V19.99H89.6603V13.48H93.4103V29.5H89.6603V23.17H81.5903V29.5H77.8403V13.48Z" fill="#B17955"/>
<path d="M104.406 13.3C106.766 13.3 108.566 13.87 109.806 15.01C111.066 16.13 111.696 17.83 111.696 20.11V29.5H108.156V27.55C107.696 28.25 107.036 28.79 106.176 29.17C105.336 29.53 104.316 29.71 103.116 29.71C101.916 29.71 100.866 29.51 99.966 29.11C99.066 28.69 98.366 28.12 97.866 27.4C97.386 26.66 97.146 25.83 97.146 24.91C97.146 23.47 97.676 22.32 98.736 21.46C99.816 20.58 101.506 20.14 103.806 20.14H107.946V19.9C107.946 18.78 107.606 17.92 106.926 17.32C106.266 16.72 105.276 16.42 103.956 16.42C103.056 16.42 102.166 16.56 101.286 16.84C100.426 17.12 99.696 17.51 99.096 18.01L97.626 15.28C98.466 14.64 99.476 14.15 100.656 13.81C101.836 13.47 103.086 13.3 104.406 13.3ZM103.896 26.98C104.836 26.98 105.666 26.77 106.386 26.35C107.126 25.91 107.646 25.29 107.946 24.49V22.63H104.076C101.916 22.63 100.836 23.34 100.836 24.76C100.836 25.44 101.106 25.98 101.646 26.38C102.186 26.78 102.936 26.98 103.896 26.98Z" fill="#B17955"/>
<path d="M129.026 16.66H123.416V29.5H119.666V16.66H114.026V13.48H129.026V16.66Z" fill="#B17955"/>
<path d="M137.717 13.3C140.077 13.3 141.877 13.87 143.117 15.01C144.377 16.13 145.007 17.83 145.007 20.11V29.5H141.467V27.55C141.007 28.25 140.347 28.79 139.487 29.17C138.647 29.53 137.627 29.71 136.427 29.71C135.227 29.71 134.177 29.51 133.277 29.11C132.377 28.69 131.677 28.12 131.177 27.4C130.697 26.66 130.457 25.83 130.457 24.91C130.457 23.47 130.987 22.32 132.047 21.46C133.127 20.58 134.817 20.14 137.117 20.14H141.257V19.9C141.257 18.78 140.917 17.92 140.237 17.32C139.577 16.72 138.587 16.42 137.267 16.42C136.367 16.42 135.477 16.56 134.597 16.84C133.737 17.12 133.007 17.51 132.407 18.01L130.937 15.28C131.777 14.64 132.787 14.15 133.967 13.81C135.147 13.47 136.397 13.3 137.717 13.3ZM137.207 26.98C138.147 26.98 138.977 26.77 139.697 26.35C140.437 25.91 140.957 25.29 141.257 24.49V22.63H137.387C135.227 22.63 134.147 23.34 134.147 24.76C134.147 25.44 134.417 25.98 134.957 26.38C135.497 26.78 136.247 26.98 137.207 26.98Z" fill="#B17955"/>
<path fill-rule="evenodd" clip-rule="evenodd" d="M19 38.5C29.4934 38.5 38 29.9934 38 19.5C38 9.00659 29.4934 0.5 19 0.5C8.50659 0.5 0 9.00659 0 19.5C0 29.9934 8.50659 38.5 19 38.5ZM11.741 27.8L13.742 23.102H23.892L25.922 27.8H29.866L20.702 7.5H16.99L7.85498 27.8H11.741ZM18.817 11.27L22.645 20.144H15.018L18.817 11.27Z" fill="#B17955"/>
</svg>
