<svg width="20" height="20" viewBox="0 0 20 20" xmlns="http://www.w3.org/2000/svg">
<g clip-path="url(#clip0_15_107)">
<path d="M8.84073 0.000396729H2.59103C2.24586 0.000396729 1.96606 0.280188 1.96606 0.625366V19.3744C1.96606 19.7196 2.24586 19.9994 2.59103 19.9994H8.84073C9.18591 19.9994 9.4657 19.7196 9.4657 19.3744V0.625366C9.4657 0.280188 9.18587 0.000396729 8.84073 0.000396729ZM8.21576 18.7495H3.216V16.8746H6.34085V15.6246H3.216V13.7497H5.09091V12.4998H3.216V10.6249H6.34085V9.37494H3.216V7.50003H5.09091V6.25009H3.216V4.37518H6.34085V3.12524H3.216V1.25034H8.21576V18.7495Z"/>
<path d="M17.1528 15.8122L15.0904 17.8684V2.13165L17.1465 4.1878L18.0278 3.3066L14.9029 0.181749C14.6591 -0.060583 14.2655 -0.060583 14.0217 0.181749L10.8969 3.3066L11.7781 4.1878L13.8405 2.13165V17.8684L11.7843 15.8122L10.9031 16.6934L14.0279 19.8183C14.2717 20.0606 14.6654 20.0606 14.9092 19.8183L18.034 16.6934L17.1528 15.8122Z"/>
</g>
<defs>
<clipPath id="clip0_15_107">
<rect width="20" height="20"/>
</clipPath>
</defs>
</svg>
