<svg width="275" height="38" viewBox="0 0 275 38" xmlns="http://www.w3.org/2000/svg">
<path d="M155.418 19.43H170.418V21.89H155.418V19.43Z" />
<path d="M189.389 20.15H185.489V29H181.649V8H185.489V16.79H189.509L195.539 8H199.679L192.509 18.17L199.949 29H195.539L189.389 20.15Z" fill="black"/>
<path d="M217.091 12.98L209.591 30.29C208.891 32.03 208.041 33.25 207.041 33.95C206.041 34.67 204.831 35.03 203.411 35.03C202.611 35.03 201.821 34.9 201.041 34.64C200.261 34.38 199.621 34.02 199.121 33.56L200.621 30.8C200.981 31.14 201.401 31.41 201.881 31.61C202.381 31.81 202.881 31.91 203.381 31.91C204.041 31.91 204.581 31.74 205.001 31.4C205.441 31.06 205.841 30.49 206.201 29.69L206.471 29.06L199.481 12.98H203.381L208.421 24.83L213.491 12.98H217.091Z" fill="black"/>
<path d="M228.808 29L224.698 23.45L220.558 29H216.418L222.658 20.87L216.688 12.98H220.858L224.788 18.23L228.718 12.98H232.768L226.768 20.81L233.038 29H228.808Z" fill="black"/>
<path d="M235.721 12.98H239.471V19.49H247.541V12.98H251.291V29H247.541V22.67H239.471V29H235.721V12.98Z" />
<path d="M256.317 12.98H260.067V23.54L268.917 12.98H272.337V29H268.587V18.44L259.767 29H256.317V12.98Z" />
<path d="M68.86 24.14H58.36L56.29 29H52.27L61.72 8H65.56L75.04 29H70.96L68.86 24.14ZM67.57 21.08L63.61 11.9L59.68 21.08H67.57Z" fill="#B17955"/>
<path d="M77.8403 12.98H81.5903V19.49H89.6603V12.98H93.4103V29H89.6603V22.67H81.5903V29H77.8403V12.98Z" fill="#B17955"/>
<path d="M104.406 12.8C106.766 12.8 108.566 13.37 109.806 14.51C111.066 15.63 111.696 17.33 111.696 19.61V29H108.156V27.05C107.696 27.75 107.036 28.29 106.176 28.67C105.336 29.03 104.316 29.21 103.116 29.21C101.916 29.21 100.866 29.01 99.966 28.61C99.066 28.19 98.366 27.62 97.866 26.9C97.386 26.16 97.146 25.33 97.146 24.41C97.146 22.97 97.676 21.82 98.736 20.96C99.816 20.08 101.506 19.64 103.806 19.64H107.946V19.4C107.946 18.28 107.606 17.42 106.926 16.82C106.266 16.22 105.276 15.92 103.956 15.92C103.056 15.92 102.166 16.06 101.286 16.34C100.426 16.62 99.696 17.01 99.096 17.51L97.626 14.78C98.466 14.14 99.476 13.65 100.656 13.31C101.836 12.97 103.086 12.8 104.406 12.8ZM103.896 26.48C104.836 26.48 105.666 26.27 106.386 25.85C107.126 25.41 107.646 24.79 107.946 23.99V22.13H104.076C101.916 22.13 100.836 22.84 100.836 24.26C100.836 24.94 101.106 25.48 101.646 25.88C102.186 26.28 102.936 26.48 103.896 26.48Z" fill="#B17955"/>
<path d="M129.026 16.16H123.416V29H119.666V16.16H114.026V12.98H129.026V16.16Z" fill="#B17955"/>
<path d="M137.717 12.8C140.077 12.8 141.877 13.37 143.117 14.51C144.377 15.63 145.007 17.33 145.007 19.61V29H141.467V27.05C141.007 27.75 140.347 28.29 139.487 28.67C138.647 29.03 137.627 29.21 136.427 29.21C135.227 29.21 134.177 29.01 133.277 28.61C132.377 28.19 131.677 27.62 131.177 26.9C130.697 26.16 130.457 25.33 130.457 24.41C130.457 22.97 130.987 21.82 132.047 20.96C133.127 20.08 134.817 19.64 137.117 19.64H141.257V19.4C141.257 18.28 140.917 17.42 140.237 16.82C139.577 16.22 138.587 15.92 137.267 15.92C136.367 15.92 135.477 16.06 134.597 16.34C133.737 16.62 133.007 17.01 132.407 17.51L130.937 14.78C131.777 14.14 132.787 13.65 133.967 13.31C135.147 12.97 136.397 12.8 137.717 12.8ZM137.207 26.48C138.147 26.48 138.977 26.27 139.697 25.85C140.437 25.41 140.957 24.79 141.257 23.99V22.13H137.387C135.227 22.13 134.147 22.84 134.147 24.26C134.147 24.94 134.417 25.48 134.957 25.88C135.497 26.28 136.247 26.48 137.207 26.48Z" fill="#B17955"/>
<path fill-rule="evenodd" clip-rule="evenodd" d="M19 38C29.4934 38 38 29.4934 38 19C38 8.50659 29.4934 0 19 0C8.50659 0 0 8.50659 0 19C0 29.4934 8.50659 38 19 38ZM11.741 27.3L13.742 22.602H23.892L25.922 27.3H29.866L20.702 7H16.99L7.85498 27.3H11.741ZM18.817 10.77L22.645 19.644H15.018L18.817 10.77Z" fill="#B17955"/>
</svg>
