<svg width="20" height="20" viewBox="0 0 20 20" fill="none" xmlns="http://www.w3.org/2000/svg">
<g clip-path="url(#clip0_15_97)">
<path d="M15.2001 8.32955V3.00226L10.0001 0L4.79999 3.00226V8.32959L0.186401 10.9932V16.9977L5.38647 20L10.0001 17.3364L14.6136 20L19.8137 16.9977V10.9932L15.2001 8.32955ZM4.79999 18.307L1.35933 16.3205V12.3476L4.79999 14.3341V18.307ZM1.94581 11.3318L5.38647 9.34537L8.82713 11.3318L5.38647 13.3183L1.94581 11.3318ZM9.41357 16.3205L5.97291 18.307V14.334L9.41357 12.3476V16.3205ZM9.41357 10.316L5.97291 8.32955V4.35663L9.41357 6.34307V10.316ZM6.5594 3.34085L10.0001 1.35441L13.4407 3.34085L10.0001 5.32729L6.5594 3.34085ZM14.0272 4.35663V8.32955L10.5865 10.316V6.34307L14.0272 4.35663ZM14.0272 18.307L10.5865 16.3205V12.3476L14.0272 14.3341V18.307ZM11.173 11.3318L14.6136 9.34537L18.0543 11.3318L14.6136 13.3183L11.173 11.3318ZM18.6407 16.3205L15.2001 18.307V14.334L18.6407 12.3476V16.3205Z" fill="#B17955"/>
</g>
<defs>
<clipPath id="clip0_15_97">
<rect width="20" height="20" fill="white"/>
</clipPath>
</defs>
</svg>
