<svg width="32" height="32" viewBox="0 0 32 32" fill="none" xmlns="http://www.w3.org/2000/svg">
<g clip-path="url(#clip0_3529_910)">
<path fill-rule="evenodd" clip-rule="evenodd" d="M16.6667 32H15.3333C8.10667 32 4.48 32 2.24 29.76C0 27.52 0 23.8933 0 16.6933V15.3333C0 8.10667 0 4.48 2.22667 2.24C4.46667 0 8.08 0 15.3333 0H16.6667C23.9067 0 27.5333 0 29.7733 2.24C32 4.48 32 8.10667 32 15.3067V16.6667C32 23.8933 32 27.52 29.7733 29.76C27.5333 32 23.92 32 16.6667 32ZM16.7346 10.3618C15.0501 11.063 11.6809 12.5144 6.62719 14.7157C5.80656 15.0421 5.37587 15.3614 5.33795 15.6734C5.27127 16.2004 5.93135 16.4083 6.82825 16.6908C6.95128 16.7295 7.07877 16.7696 7.20945 16.8122C8.09508 17.0998 9.28666 17.4365 9.90416 17.4498C10.4675 17.4619 11.0931 17.2304 11.7837 16.7553C16.5071 13.5684 18.9419 11.9575 19.0962 11.9229C19.2046 11.8985 19.3536 11.8676 19.4538 11.9578C19.5567 12.0477 19.5458 12.2183 19.535 12.2641C19.4711 12.5425 16.888 14.9441 15.5438 16.1939C15.1213 16.5868 14.8211 16.8658 14.7603 16.9292C14.6242 17.0706 14.4855 17.2042 14.3522 17.3327C13.5303 18.125 12.9137 18.7194 14.3865 19.6898C15.1007 20.1602 15.6707 20.5485 16.2404 20.9365C16.8525 21.3535 17.4642 21.7702 18.254 22.2882C18.457 22.4213 18.6509 22.5595 18.8398 22.6941C19.5577 23.2059 20.2026 23.6656 21.0003 23.5923C21.4634 23.5498 21.9428 23.1143 22.1838 21.8153C22.758 18.7454 23.8874 12.0943 24.1474 9.35347C24.1718 9.11351 24.1419 8.80611 24.1203 8.67124C24.0959 8.53636 24.0471 8.34407 23.8738 8.20189C23.6652 8.03316 23.3456 7.99768 23.2021 8.00011C22.5494 8.01176 21.5501 8.35951 16.7346 10.3618Z" fill="white"/>
</g>
<defs>
<clipPath id="clip0_3529_910">
<rect width="32" height="32" fill="white"/>
</clipPath>
</defs>
</svg>
