<svg width="24" height="24" viewBox="0 0 24 24" fill="none" xmlns="http://www.w3.org/2000/svg">
<path d="M4 20.9999C4 19.202 6.26938 15.7877 10.5 15.1162" stroke="black" stroke-width="1.5" stroke-linecap="round" stroke-linejoin="round"/>
<path d="M12 11C14.2091 11 16 9.20914 16 7C16 4.79086 14.2091 3 12 3C9.79086 3 8 4.79086 8 7C8 9.20914 9.79086 11 12 11Z" stroke="black" stroke-width="1.5" stroke-linecap="round" stroke-linejoin="round"/>
<path d="M22.8308 14.9425C22.7764 14.725 22.6655 14.5257 22.5094 14.3648C22.3533 14.2038 22.1574 14.0869 21.9417 14.0259C21.1533 13.8334 18 13.8334 18 13.8334C18 13.8334 14.8467 13.8334 14.0583 14.0442C13.8426 14.1053 13.6467 14.2222 13.4906 14.3831C13.3345 14.5441 13.2236 14.7434 13.1692 14.9609C13.0249 15.7609 12.9543 16.5725 12.9583 17.3855C12.9532 18.2045 13.0238 19.0223 13.1692 19.8284C13.2292 20.0391 13.3426 20.2309 13.4983 20.385C13.6541 20.5392 13.847 20.6505 14.0583 20.7084C14.8467 20.9192 18 20.9192 18 20.9192C18 20.9192 21.1533 20.9192 21.9417 20.7084C22.1574 20.6473 22.3533 20.5304 22.5094 20.3695C22.6655 20.2085 22.7764 20.0092 22.8308 19.7917C22.974 18.9977 23.0446 18.1923 23.0417 17.3855C23.0468 16.5664 22.9762 15.7486 22.8308 14.9425V14.9425Z" stroke="black" stroke-width="1.5" stroke-linecap="round" stroke-linejoin="round"/>
<path d="M16.9688 18.8842L19.6042 17.3855L16.9688 15.8867V18.8842Z" fill="black"/>
</svg>
