<svg width="32" height="32" viewBox="0 0 32 32" fill="none" xmlns="http://www.w3.org/2000/svg">
<g clip-path="url(#clip0_3529_905)">
<path fill-rule="evenodd" clip-rule="evenodd" d="M16.6667 32H15.3333C8.10667 32 4.48 32 2.24 29.76C0 27.52 0 23.8933 0 16.6933V15.3333C0 8.10667 0 4.48 2.22667 2.24C4.46667 0 8.08 0 15.3333 0H16.6667C23.9067 0 27.5333 0 29.7733 2.24C32 4.48 32 8.10667 32 15.3067V16.6667C32 23.8933 32 27.52 29.7733 29.76C27.5333 32 23.92 32 16.6667 32ZM5.40002 9.73328C5.57336 18.0533 9.73336 23.0533 17.0267 23.0533H17.44V18.2933C18.7265 18.4553 19.9365 18.9934 20.9185 19.8401C21.9004 20.6869 22.6106 21.8046 22.96 23.0533H26.7467C26.3574 21.6157 25.6677 20.277 24.7231 19.1255C23.7785 17.9741 22.6005 17.036 21.2667 16.3733C22.4616 15.648 23.4939 14.6839 24.2992 13.5414C25.1045 12.3988 25.6653 11.1025 25.9467 9.73328H22.5067C21.76 12.3733 19.5467 14.7733 17.44 14.9999V9.73328H14V18.9599C11.8667 18.4266 9.17336 15.8399 9.05336 9.73328H5.40002Z" fill="white"/>
</g>
<defs>
<clipPath id="clip0_3529_905">
<rect width="32" height="32" fill="white"/>
</clipPath>
</defs>
</svg>
